<svg xmlns="http://www.w3.org/2000/svg" xmlns:xlink="http://www.w3.org/1999/xlink" width="345.6" height="345.6" viewBox="0 0 259.2 259.2"><g data-name="Camada 1"><path d="M78.806 163.079c.434-.374.869-.731 1.31-1.098-12.122 3.295-24.65-1.89-33.712-10.155a64.871 64.871 0 01-7.586-8.194l-.015-.03-.011-.018c-11.636-15-12.102-30.056-10.25-35.245.08-.257.103-.572.34-.704.242-.138 1.904 3.243 7.34 4.296-.83-1.97-3.484-5.436-4.322-7.413 1.953-.244 4.422-.911 6.36-1.155-1.04-.546-2.71-1.609-3.758-2.163 1.474-1.786 5.36-3.087 7.58-3.742-1.152-.127-4.949.353-5.953-.23-.131-.192 4.39-4.42 7.764-6.267 4.824-2.628 16.247-5.255 28.83-3.36-6.737-.608-12.165.615-17.788 2.925-2.189.898-6.586 3.063-6.253 5.395-.326-2.331 4.067-4.494 6.254-5.391 5.623-2.309 11.051-3.532 17.788-2.924h.014c6.501.975 13.321 3.155 19.71 7.153a45.13 45.13 0 012.622 1.77 49.336 49.336 0 017.495 6.704c-2.64-3.084-4.604-6.431-5.951-9.936-3.546-9.15-2.92-19.315.625-28.384.49-1.246 1.316-2.932 2.446-4.888 6.733-10.014 16.804-19.378 22.312-19.947.947-.093 1.928.541 2.388 1.372l.05.093-.051-.097c-.46-.831-1.442-1.465-2.39-1.373-5.506.57-15.577 9.934-22.31 19.947 6.222-10.852 21.544-30.38 38.342-33.448-1.602 2.572-2.17 5.756-1.577 8.724a96.845 96.845 0 017.771-6.303c-1.072 2.558-1.243 5.48-.503 8.153a61.3 61.3 0 013.803-4.67c.17-.198.384-.41.647-.41.228-.007.418.156.586.296a23.015 23.015 0 016.14 8.52c.99-2.112 1.863-4.209 1.474-6.5 12.406 12.485 20.017 40.338 8.797 65.05l-.009.027a60.831 60.831 0 01-4.046 7.475c.203-.27.407-.536.614-.8l.01-.013.044-.057.003-.003.004-.006.007-.008.006-.008.006-.008.019-.024.006-.008.007-.008.006-.008.006-.008.004-.005.002-.002.006-.008.007-.008.006-.008.005-.008.007-.008.003-.003.003-.005.007-.007.006-.008.006-.008.006-.008.006-.008.005-.005.003-.005.004-.005.004-.005.004-.004.002-.003.001-.002.004-.004.004-.005.004-.005v-.001l.003-.003.004-.005.004-.005.004-.004.003-.006.004-.004.003-.005.004-.004.014-.017.007-.01.003-.003.006-.007.001-.002.004-.004c.46-.58.93-1.143 1.418-1.695a55.669 55.669 0 0113.6-11.364c3.435-2.037 7.287-3.625 11.32-4.691 5.737-1.135 13.393 1.179 16.91 3.216 2.037 1.18 3.992 2.575 5.403 4.465a9.947 9.947 0 01-.001-.004c-1.411-1.89-3.366-3.284-5.403-4.466-3.518-2.036-11.173-4.351-16.91-3.216 11.975-3.163 25.594-1.681 34.927 6.562a26.916 26.916 0 016.375 8.359c.139.272.27.58.24.889-.046.455-.421.799-.768 1.099-2.936 2.581-5.363 6.017-5.793 9.913a32.774 32.774 0 006.56-1.381 40.906 40.906 0 01-5.814 11.587c3.07-.622 5.793-2.654 7.394-5.343-3.451 20.326-17.706 30.367-33.862 33.99l-.062.02-.022.006c-4.473.992-9.093 1.513-13.673 1.602-.573.013-1.145.02-1.716.02h.001c7.802 5.05 15.184 12.251 19.678 20.788l.02.027a31.482 31.482 0 01-.001-.004c5.956 11.371 6.793 25.094-3.334 39.245-.071-1.785-.688-3.252-1.844-4.604a40.23 40.23 0 01-3.604 7.113c-.575-1.035-2.618-3.368-3.186-4.398-1.417 2.97-2.5 6.55-1.368 10.702.024.107-.04.228-.125.307-.078.071-.188.08-.298.088-1.273.077-2.551.162-3.816.244a14.807 14.807 0 004.491 3.233c-19.232-.354-32.046-8.214-40.56-18.106l-.01-.008c-4.683-5.446-8.06-11.5-10.483-17.257-.17-.404-.335-.806-.496-1.207-1.427 5.783-3.906 11.213-6.888 16.404l-.012.016c-4.82 8.397-12.005 16.528-20.748 20.916-6.882 3.458-14.98 4.262-14.501 3.58 1.364-1.94 2.762-3.17 2.815-5.783-3.41 3.389-10.112 6.025-11.956 4.272-.915-.877 2.552-4.162.229-9.99-3.95 2.373-4.326 7.782-6.208 6.198-2.108-1.783-2.467-4.163-2.76-6.74l-2.502 4.198c-.125.198-.244.403-.442.527-.56.35-1.255-.113-1.723-.57-5.49-5.332-9.151-12.508-9.751-20.166-.705-9.075.983-18.407 5.083-26.55-1.779 3.664-2.804 8.8-2.745 13.868-.058-5.066.969-10.2 2.746-13.863l.058-.118c2.69-5.32 6.384-10.704 10.903-14.61zm83.193-57.295l.006-.007.001-.002zm.014-.018l.002-.002zm-96.676 89.543zm-.15-1.552zm136.993-16.479zm-41.137-70.25c-.701.93-1.372 1.905-2.007 2.886-.08.125-.169.257-.25.38a50.643 50.643 0 002.257-3.266zm51.12-8.513zm-.862 9.733zm.124.386c.038.096.08.192.129.286.57 1.103 1.808 1.804 2.163 2.987l.025.09-.025-.094c-.357-1.184-1.594-1.885-2.164-2.987a3.19 3.19 0 01-.128-.282zm1.421 9.109l.001.004c.387 1.426 2.021 2.25 2.574 3.568-.552-1.32-2.187-2.145-2.575-3.572zm-.787 11.86c.513 1.684 2.275 3.112 3.056 4.829a4.79 4.79 0 01-.001-.004c-.78-1.716-2.54-3.144-3.055-4.825zm-87.171-86.745c.096.263.217.509.407.716.614.66 1.534.587 2.482.513.713-.054 1.442-.11 2.068.147 1.76.726 1.964 3.552 3.774 4.108.933.29 1.856-.152 2.781-.593.903-.43 1.806-.86 2.722-.615 1.203.327 1.793 1.628 2.597 2.57 1.353 1.568 3.663 2.243 5.647 1.648.949-.284 1.963-.839 2.88-.447.424.193.739.554 1.023.914a17.655 17.655 0 010-.004c-.286-.36-.6-.722-1.025-.914-.916-.392-1.93.163-2.879.446-1.984.595-4.294-.08-5.647-1.647-.804-.942-1.394-2.243-2.597-2.57-1.856-.498-3.662 1.78-5.502 1.208-1.811-.556-2.016-3.383-3.775-4.107-1.459-.6-3.473.495-4.549-.661a2.097 2.097 0 01-.407-.712zm29.195 14.127l.091.275.035.103-.036-.107zm.418 1.232c.166.432.372.842.694 1.175 1.2 1.237 3.25.767 4.93 1.19 1.555.387 2.799 1.609 3.595 3a10.377 10.377 0 01-.001-.006c-.796-1.39-2.04-2.612-3.595-2.998-1.68-.424-3.73.047-4.93-1.19-.321-.333-.527-.74-.693-1.171zm-120.085 74.33c-.584-3.78.102-6.162.545-6.478.661-.475 1.523-.454 2.376-.434.92.021 1.83.044 2.464-.556.553-.518.636-1.185.542-1.922.092.735.008 1.401-.543 1.917-1.223 1.156-3.465.004-4.84.99-.444.317-1.13 2.7-.544 6.483zm5.372-11.925c-.09-.548-.112-1.087.032-1.591.713-2.495 5.037-2.826 5.177-5.424a2.764 2.764 0 00-.001-.005c-.14 2.599-4.465 2.93-5.177 5.423-.145.506-.122 1.048-.03 1.597zm4.67-9.518c-.282-1.892.527-3.856 1.775-5.34 1.34-1.611 3.151-2.75 4.924-3.883.33-.211.684-.43.89-.767.175-.287.225-.591.183-.894.04.301-.011.603-.184.889-.207.337-.56.556-.89.769-1.773 1.131-3.583 2.271-4.923 3.882-1.25 1.484-2.06 3.45-1.774 5.344" fill="#e7adaa"/><path stroke-width="1.92" stroke-linecap="round" stroke-linejoin="round" fill="none" stroke="#231f20" d="M156.367 34.382c10.381 10.447 17.404 31.653 12.848 52.775l24.526-2.823-.063 1.982 21.302-3.132-.423 5.988c6.347 2.582 11.758 7.078 15.102 13.752.458.915.263 1.298-.528 1.988-2.936 2.581-5.363 6.017-5.793 9.913a32.756 32.756 0 006.56-1.381 40.912 40.912 0 01-5.814 11.587c3.07-.622 5.793-2.654 7.394-5.343-1.964 11.565-7.425 19.8-14.744 25.418-3.133 13.1-5.244 24.681-6.34 34.746l-6.182 1.712a36.843 36.843 0 011.253 4.417h.328v1.721a33.288 33.288 0 010 10.894v4.556l-.839-.806c-1.204 4.265-3.294 8.63-6.447 13.035-.071-1.784-.688-3.251-1.844-4.603a40.212 40.212 0 01-3.604 7.113c-.575-1.035-2.618-3.368-3.185-4.397-1.418 2.969-2.5 6.549-1.368 10.701l-.424.395c-1.273.077-2.551.162-3.816.244a14.817 14.817 0 004.491 3.233c-19.232-.354-32.046-8.214-40.56-18.106l-.009-.008a59.417 59.417 0 01-5.169-7.01 8.941 8.941 0 01-3.316-.658 8.818 8.818 0 01-2.858-1.879 8.435 8.435 0 01-1.729-2.37c-1.324 3.393-2.966 6.67-4.796 9.857l-.012.015c-4.82 8.399-12.005 16.529-20.748 20.917-6.882 3.458-14.98 4.262-14.502 3.58 1.365-1.94 2.763-3.17 2.816-5.783-3.41 3.389-10.112 6.025-11.956 4.272-.916-.877 2.552-4.162.229-9.99-3.95 2.373-4.326 7.782-6.208 6.198-2.108-1.783-2.467-4.163-2.76-6.74l-2.944 4.725c-.559.35-1.255-.113-1.723-.571-5.49-5.331-9.151-12.507-9.751-20.165a52.024 52.024 0 01.25-10.512l-1.01-.971a15.098 15.098 0 01-.828-.882c-.27-.308-.52-.632-.763-.971v11.49h-2.473v-17.171l5.57 5.355c.828-4.37 2.227-8.628 4.197-12.608l-10.093 5.386-4.334-23.35a287.489 287.489 0 00-3.087 19.735l-9.799 2.727 5.405-31.314a64.65 64.65 0 01-6.978-7.633l-.026-.048c-11.636-15-12.102-30.056-10.25-35.245.08-.257.103-.572.34-.704.242-.138 1.904 3.243 7.34 4.296-.83-1.97-3.484-5.436-4.322-7.413 1.953-.244 4.422-.911 6.36-1.155-1.04-.546-2.71-1.609-3.758-2.163 1.474-1.786 5.36-3.087 7.58-3.742-1.152-.128-4.949.353-5.953-.23-.131-.192 4.39-4.42 7.764-6.267 2.17-1.182 5.673-2.363 10.016-3.134l5.377-2.478a99.933 99.933 0 00-.102 1.802 59.634 59.634 0 017.449-.138l.443-.932 10.63 1.849-.326.574.345.084c.157-.589.313-1.176.466-1.763l16.25-2.728c-.641-6.364.359-12.954 2.798-19.184.49-1.246 1.316-2.932 2.445-4.893 6.222-10.852 21.544-30.38 38.341-33.448-1.6 2.572-2.168 5.756-1.576 8.724a96.795 96.795 0 017.771-6.303c-1.072 2.558-1.243 5.48-.503 8.153.534-.726 3.728-5.07 4.45-5.08.228-.007.418.156.586.296a23.016 23.016 0 016.14 8.52c.99-2.112 1.863-4.209 1.474-6.5zM48.393 185.334l7.992 17.171H53.55l-1.872-4.252H45.13l-1.918 4.252h-2.82zm161.194.647h9.221v2.288h-6.54v4.136h6.54v2.358h-6.54v5.338h6.54v2.404h-9.221z"/><symbol id="a"><path d="M.327.697L.484.67A6.195 6.195 0 01.15 0L0 .01l.104.218L.022.62l.19.088A2.7 2.7 0 01.208.596C.207.551.21.506.215.461l.112.236z"/></symbol><symbol id="b"><path d="M0 0c.096.244.173.48.233.706l.296.05a4.021 4.021 0 01-.046-.7L.276.008.291.13.226.118.205.031 0 0m.307.262L.352.63H.351L.259.252l.048.01z"/></symbol><symbol id="c"><path d="M0 .041c.088.223.155.449.201.68l.234.038L.401.401l.092.331.224.039a4.585 4.585 0 01-.04-.574V.096L.478.061l.035.427L.385.015.277 0l.065.602L.203.068 0 .041z"/></symbol><symbol id="d"><path d="M.253.545L.239.489.229.436l.156.033L.376.334A3.222 3.222 0 01.202.3L.195.261.188.223l.181.026L.357.067A2.147 2.147 0 010 0l.116.7.326.048L.429.566A1.982 1.982 0 01.253.545z"/></symbol><symbol id="e"><path d="M.414.731L.408.55a4.344 4.344 0 01-.13-.01A3.753 3.753 0 01.191.043L.026 0l.09.52L.064.511.012.501 0 .683l.414.048z"/></symbol><use xlink:href="#a" transform="matrix(67.639 0 0 -67.639 44.947 133.237)" fill="#231f20"/><use xlink:href="#b" transform="matrix(67.639 0 0 -67.639 62.465 134.59)" fill="#231f20"/><use xlink:href="#c" transform="matrix(67.639 0 0 -67.639 91.482 136.89)" fill="#231f20"/><use xlink:href="#d" transform="matrix(67.639 0 0 -67.639 136.665 133.778)" fill="#231f20"/><use xlink:href="#e" transform="matrix(67.639 0 0 -67.639 165.75 133.778)" fill="#231f20"/><use xlink:href="#d" transform="matrix(67.639 0 0 -67.639 185.162 133.778)" fill="#231f20"/><use xlink:href="#a" stroke-width=".021" stroke-linecap="round" stroke-linejoin="round" transform="matrix(67.639 0 0 -67.639 44.947 133.237)" fill="none" stroke="#231f20"/><use xlink:href="#b" stroke-width=".021" stroke-linecap="round" stroke-linejoin="round" transform="matrix(67.639 0 0 -67.639 62.465 134.59)" fill="none" stroke="#231f20"/><use xlink:href="#c" stroke-width=".021" stroke-linecap="round" stroke-linejoin="round" transform="matrix(67.639 0 0 -67.639 91.482 136.89)" fill="none" stroke="#231f20"/><use xlink:href="#d" stroke-width=".021" stroke-linecap="round" stroke-linejoin="round" transform="matrix(67.639 0 0 -67.639 136.665 133.778)" fill="none" stroke="#231f20"/><use xlink:href="#e" stroke-width=".021" stroke-linecap="round" stroke-linejoin="round" transform="matrix(67.639 0 0 -67.639 165.75 133.778)" fill="none" stroke="#231f20"/><use xlink:href="#d" stroke-width=".021" stroke-linecap="round" stroke-linejoin="round" transform="matrix(67.639 0 0 -67.639 185.162 133.778)" fill="none" stroke="#231f20"/><symbol id="f"><path d="M.119.705l.168.031A3.03 3.03 0 01.254.6c.057.05.108.097.155.143l.123-.08L.34.492.447.094.272 0 .203.368A4.258 4.258 0 01.155.057L0 .014l.119.691z"/></symbol><symbol id="g"><path d="M.121.691l.167.031A4.615 4.615 0 01.189.263l.092.039.069.389.167.031A4.997 4.997 0 01.385.043L.229 0l.019.109A16.102 16.102 0 000 0l.121.691z"/></symbol><symbol id="h"><path d="M.116.692a.622.622 0 00.191.037C.365.729.41.714.441.683A.22.22 0 00.504.524.565.565 0 00.316.151.573.573 0 000 0a2.4 2.4 0 00.02.128l.079.45C.11.645.116.683.116.692M.256.53A3.663 3.663 0 01.188.168c.039.037.073.08.104.129.038.06.057.111.057.154C.349.507.318.533.256.53z"/></symbol><symbol id="i"><path d="M.454.537L.38.508.307.48c0 .031-.009.046-.026.046C.257.526.233.512.209.485.192.465.185.445.188.426.19.414.202.408.225.408c.012 0 .028.002.049.006a.347.347 0 00.074.008C.403.422.434.404.444.366A.222.222 0 00.447.329.25.25 0 00.401.194a.495.495 0 00-.17-.16A.22.22 0 00.117 0a.193.193 0 00-.099.028c.016.04.042.097.078.174A.111.111 0 01.195.185a.28.28 0 01.057.022c.026.015.039.029.039.044 0 .017-.013.025-.04.025A.438.438 0 01.172.265a.395.395 0 00-.08-.012.098.098 0 00-.056.014C.011.284 0 .31.005.346c.008.072.055.156.14.251.086.097.161.149.223.153C.429.754.459.708.459.614A.54.54 0 00.454.537z"/></symbol><symbol id="j"><path d="M.12.691l.168.031A4.829 4.829 0 01.155.043L0 0l.12.691z"/></symbol><use xlink:href="#f" transform="matrix(63.426 0 0 -63.426 40.391 183.467)" fill="#231f20"/><use xlink:href="#g" transform="matrix(63.426 0 0 -63.426 68.045 182.58)" fill="#231f20"/><use xlink:href="#h" transform="matrix(63.426 0 0 -63.426 94.303 182.58)" fill="#231f20"/><use xlink:href="#b" transform="matrix(63.426 0 0 -63.426 116.439 183.34)" fill="#231f20"/><use xlink:href="#i" transform="matrix(63.426 0 0 -63.426 147.454 183.784)" fill="#231f20"/><use xlink:href="#b" transform="matrix(63.426 0 0 -63.426 169.336 183.34)" fill="#231f20"/><use xlink:href="#j" transform="matrix(63.426 0 0 -63.426 200.669 182.58)" fill="#231f20"/><use xlink:href="#f" stroke-width=".023" stroke-linecap="round" stroke-linejoin="round" transform="matrix(63.426 0 0 -63.426 40.391 183.467)" fill="none" stroke="#231f20"/><use xlink:href="#g" stroke-width=".023" stroke-linecap="round" stroke-linejoin="round" transform="matrix(63.426 0 0 -63.426 68.045 182.58)" fill="none" stroke="#231f20"/><use xlink:href="#h" stroke-width=".023" stroke-linecap="round" stroke-linejoin="round" transform="matrix(63.426 0 0 -63.426 94.303 182.58)" fill="none" stroke="#231f20"/><use xlink:href="#b" stroke-width=".023" stroke-linecap="round" stroke-linejoin="round" transform="matrix(63.426 0 0 -63.426 116.439 183.34)" fill="none" stroke="#231f20"/><use xlink:href="#i" stroke-width=".023" stroke-linecap="round" stroke-linejoin="round" transform="matrix(63.426 0 0 -63.426 147.454 183.784)" fill="none" stroke="#231f20"/><use xlink:href="#b" stroke-width=".023" stroke-linecap="round" stroke-linejoin="round" transform="matrix(63.426 0 0 -63.426 169.336 183.34)" fill="none" stroke="#231f20"/><use xlink:href="#j" stroke-width=".023" stroke-linecap="round" stroke-linejoin="round" transform="matrix(63.426 0 0 -63.426 200.669 182.58)" fill="none" stroke="#231f20"/><symbol id="k"><path d="M.248.281h.199L.374.444.361.48.347.525.335.481.321.444.248.281M.569 0L.488.184H.205L.122 0H0l.346.743L.692 0H.569z"/></symbol><symbol id="l"><path d="M0 .028v.743L.454.334.492.295a.725.725 0 00.04-.048v.496h.107V0L.176.445.14.483.107.525V.028H0z"/></symbol><symbol id="m"><path d="M0 0v.715h.116V0H0z"/></symbol><symbol id="n"><path d="M.652.382a1.369 1.369 0 00-.006.046L.639.48A.4.4 0 00.606.381L.419 0 .232.389A.396.396 0 00.197.48C.197.465.195.449.193.433A.516.516 0 00.184.381L.107.029H0l.169.745L.38.323A3.154 3.154 0 00.419.226c.007.02.018.046.032.078L.46.323l.206.451.173-.745H.731L.652.382z"/></symbol><symbol id="o"><path d="M0 0v.715h.399V.616H.116V.437h.283V.335H.116V.104h.283V0H0z"/></symbol><symbol id="p"><path d="M0 .162l.093.043A.131.131 0 01.141.132a.152.152 0 01.09-.025c.035 0 .062.01.083.029.02.019.03.045.03.077 0 .042-.035.079-.105.112a.51.51 0 00-.18.115.171.171 0 00-.039.114c0 .059.02.106.059.142.04.036.092.054.156.054C.288.75.332.74.367.72A.164.164 0 00.441.632L.35.585a.139.139 0 01-.047.049.107.107 0 01-.059.016A.108.108 0 01.17.626.083.083 0 01.142.56c0-.043.041-.083.121-.12L.278.433A.43.43 0 00.424.338.176.176 0 00.463.221.21.21 0 00.399.06.243.243 0 00.226 0a.251.251 0 00-.15.042.2.2 0 00-.076.12z"/></symbol><symbol id="r"><path d="M.643.375a.274.274 0 01-.16.248.267.267 0 01-.201 0A.257.257 0 01.141.479a.279.279 0 010-.206.257.257 0 01.482 0c.013.032.02.066.02.102m.121 0A.366.366 0 00.528.028a.38.38 0 00-.293.001.38.38 0 00-.207.202.38.38 0 00.083.41.388.388 0 00.418.081.386.386 0 00.207-.203.37.37 0 00.028-.144z"/></symbol><symbol id="s"><path d="M0 0v.715h.116V.104h.26V0H0z"/></symbol><use xlink:href="#k" transform="matrix(23.111 0 0 -23.111 40.392 202.505)" fill="#231f20"/><use xlink:href="#l" transform="matrix(23.111 0 0 -23.111 57.933 203.152)" fill="#231f20"/><use xlink:href="#m" transform="matrix(23.111 0 0 -23.111 76.538 202.505)" fill="#231f20"/><use xlink:href="#n" transform="matrix(23.111 0 0 -23.111 81.483 203.175)" fill="#231f20"/><use xlink:href="#o" transform="matrix(23.111 0 0 -23.111 103.023 202.505)" fill="#231f20"/><use xlink:href="#p" transform="matrix(23.111 0 0 -23.111 114.37 202.944)" fill="#231f20"/><use xlink:href="#q" transform="matrix(23.111 0 0 -23.111 126.11 202.505)" fill="#231f20"/><use xlink:href="#r" transform="matrix(23.111 0 0 -23.111 134.269 202.944)" fill="#231f20"/><use xlink:href="#l" transform="matrix(23.111 0 0 -23.111 155 203.152)" fill="#231f20"/><use xlink:href="#s" transform="matrix(23.111 0 0 -23.111 173.558 202.505)" fill="#231f20"/><use xlink:href="#m" transform="matrix(23.111 0 0 -23.111 184.466 202.505)" fill="#231f20"/><use xlink:href="#l" transform="matrix(23.111 0 0 -23.111 191.006 203.152)" fill="#231f20"/><use xlink:href="#o" transform="matrix(23.111 0 0 -23.111 209.565 202.505)" fill="#231f20"/><use xlink:href="#k" stroke-width=".062" stroke-linecap="round" stroke-linejoin="round" transform="matrix(23.111 0 0 -23.111 40.392 202.505)" fill="none" stroke="#231f20"/><use xlink:href="#l" stroke-width=".062" stroke-linecap="round" stroke-linejoin="round" transform="matrix(23.111 0 0 -23.111 57.933 203.152)" fill="none" stroke="#231f20"/><use xlink:href="#m" stroke-width=".062" stroke-linecap="round" stroke-linejoin="round" transform="matrix(23.111 0 0 -23.111 76.538 202.505)" fill="none" stroke="#231f20"/><use xlink:href="#n" stroke-width=".062" stroke-linecap="round" stroke-linejoin="round" transform="matrix(23.111 0 0 -23.111 81.483 203.175)" fill="none" stroke="#231f20"/><use xlink:href="#o" stroke-width=".062" stroke-linecap="round" stroke-linejoin="round" transform="matrix(23.111 0 0 -23.111 103.023 202.505)" fill="none" stroke="#231f20"/><use xlink:href="#p" stroke-width=".062" stroke-linecap="round" stroke-linejoin="round" transform="matrix(23.111 0 0 -23.111 114.37 202.944)" fill="none" stroke="#231f20"/><use xlink:href="#q" stroke-width=".062" stroke-linecap="round" stroke-linejoin="round" transform="matrix(23.111 0 0 -23.111 126.11 202.505)" fill="none" stroke="#231f20"/><use xlink:href="#r" stroke-width=".062" stroke-linecap="round" stroke-linejoin="round" transform="matrix(23.111 0 0 -23.111 134.269 202.944)" fill="none" stroke="#231f20"/><use xlink:href="#l" stroke-width=".062" stroke-linecap="round" stroke-linejoin="round" transform="matrix(23.111 0 0 -23.111 155 203.152)" fill="none" stroke="#231f20"/><use xlink:href="#s" stroke-width=".062" stroke-linecap="round" stroke-linejoin="round" transform="matrix(23.111 0 0 -23.111 173.558 202.505)" fill="none" stroke="#231f20"/><use xlink:href="#m" stroke-width=".062" stroke-linecap="round" stroke-linejoin="round" transform="matrix(23.111 0 0 -23.111 184.466 202.505)" fill="none" stroke="#231f20"/><use xlink:href="#l" stroke-width=".062" stroke-linecap="round" stroke-linejoin="round" transform="matrix(23.111 0 0 -23.111 191.006 203.152)" fill="none" stroke="#231f20"/><use xlink:href="#o" stroke-width=".062" stroke-linecap="round" stroke-linejoin="round" transform="matrix(23.111 0 0 -23.111 209.565 202.505)" fill="none" stroke="#231f20"/><use xlink:href="#a" transform="matrix(67.639 0 0 -67.639 44.947 133.237)" fill="#fff684"/><use xlink:href="#b" transform="matrix(67.639 0 0 -67.639 62.465 134.59)" fill="#fff684"/><use xlink:href="#c" transform="matrix(67.639 0 0 -67.639 91.482 136.89)" fill="#fff684"/><use xlink:href="#d" transform="matrix(67.639 0 0 -67.639 136.665 133.778)" fill="#fff684"/><use xlink:href="#e" transform="matrix(67.639 0 0 -67.639 165.75 133.778)" fill="#fff684"/><use xlink:href="#d" transform="matrix(67.639 0 0 -67.639 185.162 133.778)" fill="#fff684"/><use xlink:href="#f" transform="matrix(63.426 0 0 -63.426 40.391 183.467)" fill="#fff684"/><use xlink:href="#g" transform="matrix(63.426 0 0 -63.426 68.045 182.58)" fill="#fff684"/><use xlink:href="#h" transform="matrix(63.426 0 0 -63.426 94.303 182.58)" fill="#fff684"/><use xlink:href="#b" transform="matrix(63.426 0 0 -63.426 116.439 183.34)" fill="#fff684"/><use xlink:href="#i" transform="matrix(63.426 0 0 -63.426 147.454 183.784)" fill="#fff684"/><use xlink:href="#b" transform="matrix(63.426 0 0 -63.426 169.336 183.34)" fill="#fff684"/><use xlink:href="#j" transform="matrix(63.426 0 0 -63.426 200.669 182.58)" fill="#fff684"/><use xlink:href="#k" transform="matrix(23.111 0 0 -23.111 40.392 202.505)" fill="#fff684"/><use xlink:href="#l" transform="matrix(23.111 0 0 -23.111 57.933 203.152)" fill="#fff684"/><use xlink:href="#m" transform="matrix(23.111 0 0 -23.111 76.538 202.505)" fill="#fff684"/><use xlink:href="#n" transform="matrix(23.111 0 0 -23.111 81.483 203.175)" fill="#fff684"/><use xlink:href="#o" transform="matrix(23.111 0 0 -23.111 103.023 202.505)" fill="#fff684"/><use xlink:href="#p" transform="matrix(23.111 0 0 -23.111 114.37 202.944)" fill="#fff684"/><use xlink:href="#q" transform="matrix(23.111 0 0 -23.111 126.11 202.505)" fill="#fff684"/><use xlink:href="#r" transform="matrix(23.111 0 0 -23.111 134.269 202.944)" fill="#fff684"/><use xlink:href="#l" transform="matrix(23.111 0 0 -23.111 155 203.152)" fill="#fff684"/><use xlink:href="#s" transform="matrix(23.111 0 0 -23.111 173.558 202.505)" fill="#fff684"/><use xlink:href="#m" transform="matrix(23.111 0 0 -23.111 184.466 202.505)" fill="#fff684"/><use xlink:href="#l" transform="matrix(23.111 0 0 -23.111 191.006 203.152)" fill="#fff684"/><use xlink:href="#o" transform="matrix(23.111 0 0 -23.111 209.565 202.505)" fill="#fff684"/></g></svg>