<svg xmlns="http://www.w3.org/2000/svg" xmlns:xlink="http://www.w3.org/1999/xlink" width="345.6" height="345.6" viewBox="0 0 259.2 259.2"><g data-name="Camada 1"><path d="M33.988 181.031h6.804v10.385h-6.804z" fill="#231f20" fill-rule="evenodd"/><path d="M81.875 162.143c.422-.363.844-.71 1.274-1.067-11.784 3.203-23.962-1.837-32.77-9.871a63.04 63.04 0 01-7.374-7.965l-.015-.029-.011-.018c-11.31-14.58-11.764-29.216-9.964-34.26.08-.25.101-.556.33-.684.236-.134 1.852 3.153 7.136 4.176-.807-1.915-3.386-5.284-4.201-7.206 1.898-.237 4.298-.886 6.183-1.123-1.012-.53-2.635-1.563-3.654-2.102 1.433-1.736 5.21-3.001 7.368-3.637-1.12-.124-4.81.342-5.786-.225-.128-.185 4.266-4.296 7.547-6.09 4.689-2.555 15.792-5.11 28.023-3.266-6.548-.592-11.825.597-17.29 2.842-2.128.873-6.402 2.978-6.079 5.245-.316-2.267 3.954-4.368 6.08-5.241 5.466-2.244 10.742-3.433 17.29-2.842h.014c6.32.948 12.95 3.067 19.159 6.953a43.813 43.813 0 012.549 1.72 47.969 47.969 0 017.285 6.517c-2.566-2.998-4.475-6.251-5.785-9.658-3.446-8.894-2.837-18.775.609-27.59.475-1.212 1.279-2.851 2.377-4.752 6.545-9.734 16.334-18.837 21.688-19.39.92-.09 1.875.527 2.321 1.335l.049.09-.05-.095c-.446-.807-1.401-1.424-2.322-1.334-5.352.554-15.142 9.656-21.687 19.39 6.048-10.55 20.942-29.532 37.27-32.514-1.556 2.5-2.108 5.595-1.532 8.48a94.203 94.203 0 017.553-6.126c-1.043 2.486-1.208 5.325-.489 7.924a59.543 59.543 0 013.697-4.54c.165-.192.373-.398.629-.398.22-.006.406.152.57.288a22.37 22.37 0 015.968 8.281c.962-2.052 1.81-4.09 1.433-6.318 8.79 14.666 16.83 34.034 13.073 38.24 14.618-.656 9.462 2.585 14.65 2.746 6.217.194 10.36-2.316 13.175-.707 4.865 2.781 8.273 11.483 25.222 15.716 2.583 2.284 3.605 7.53 5.122 10.632.136.264.263.564.234.863-.045.443-.41.778-.746 1.069-2.855 2.51-5.214 5.849-5.632 9.636a31.857 31.857 0 006.377-1.342 39.766 39.766 0 01-5.652 11.263c2.985-.605 5.631-2.58 7.188-5.194-3.355 19.757-17.21 29.518-32.916 33.04l-.06.019-.021.007c-4.349.963-8.839 1.47-13.29 1.556-.557.013-1.114.02-1.669.02h.001c7.584 4.908 14.76 11.909 19.128 20.207l.019.026a31.488 31.488 0 010-.004c5.789 11.053 6.602 24.392-3.242 38.148-.069-1.735-.668-3.161-1.792-4.475a39.089 39.089 0 01-3.503 6.914c-.559-1.006-2.545-3.274-3.097-4.275-1.377 2.886-2.43 6.367-1.33 10.402.023.105-.04.222-.121.299-.077.07-.183.078-.29.086-1.238.075-2.48.157-3.71.236a14.393 14.393 0 004.366 3.144c-18.694-.344-31.15-7.985-39.426-17.6l-.01-.008c-4.552-5.294-7.835-11.178-10.19-16.774a74.148 74.148 0 01-.482-1.174c-1.387 5.621-3.797 10.9-6.696 15.946l-.01.015c-4.686 8.163-11.67 16.066-20.17 20.331-6.688 3.361-14.56 4.143-14.095 3.48 1.326-1.886 2.685-3.08 2.736-5.62-3.314 3.293-9.829 5.855-11.621 4.151-.89-.852 2.48-4.045.222-9.71-3.838 2.306-4.205 7.564-6.034 6.024-2.05-1.732-2.398-4.046-2.683-6.552l-2.432 4.082c-.122.192-.237.391-.43.512-.543.34-1.22-.11-1.674-.555-5.336-5.182-8.896-12.158-9.479-19.602-.685-8.821.956-17.893 4.94-25.807-1.728 3.561-2.725 8.554-2.667 13.48-.056-4.924.941-9.916 2.67-13.475l.056-.115c2.614-5.172 6.205-10.405 10.598-14.201zm-13.093 31.33zm-.146-1.51zM201.8 175.946zm8.866-67.1zm.12.375c.037.094.078.186.126.278.554 1.072 1.757 1.753 2.103 2.904l.024.087-.025-.092c-.347-1.15-1.55-1.831-2.103-2.903a3.08 3.08 0 01-.125-.274zm1.382 8.854v.005c.377 1.385 1.965 2.186 2.503 3.467-.536-1.283-2.126-2.085-2.503-3.472zm-.766 11.529c.5 1.636 2.212 3.025 2.971 4.694a4.511 4.511 0 010-.004c-.759-1.668-2.47-3.056-2.97-4.69zm-84.734-84.32c.093.255.212.494.396.696.597.641 1.491.57 2.412.499.694-.053 1.402-.107 2.011.143 1.71.705 1.909 3.452 3.669 3.993.906.28 1.804-.148 2.703-.577.877-.418 1.755-.837 2.645-.598 1.17.317 1.743 1.582 2.525 2.5 1.315 1.523 3.561 2.179 5.49 1.6.921-.275 1.908-.815 2.798-.434.413.187.718.538.996.888a17.166 17.166 0 01-.001-.004c-.278-.35-.583-.701-.996-.888-.891-.381-1.877.158-2.799.434-1.928.578-4.174-.078-5.49-1.602-.78-.915-1.354-2.18-2.523-2.498-1.804-.484-3.56 1.73-5.349 1.174-1.76-.54-1.959-3.287-3.669-3.992-1.418-.582-3.376.482-4.422-.642a2.042 2.042 0 01-.396-.692zm28.38 13.732l.088.267.034.1-.035-.104zm.406 1.197c.161.42.361.819.675 1.142 1.166 1.203 3.159.746 4.792 1.157 1.51.376 2.72 1.564 3.494 2.916a10.114 10.114 0 01-.001-.005c-.774-1.35-1.984-2.54-3.495-2.915-1.633-.412-3.625.046-4.792-1.157-.312-.323-.512-.719-.673-1.138zM38.725 132.464c-.567-3.674.1-5.99.53-6.296.643-.462 1.481-.442 2.31-.422.895.02 1.778.042 2.395-.54.537-.504.618-1.153.526-1.869.09.715.009 1.362-.527 1.863-1.188 1.124-3.368.005-4.705.963-.431.308-1.097 2.624-.529 6.301zm5.222-11.591c-.088-.532-.109-1.057.032-1.547.692-2.424 4.896-2.746 5.032-5.272a2.705 2.705 0 00-.001-.004c-.136 2.525-4.34 2.847-5.032 5.271-.141.492-.12 1.018-.03 1.552zm4.54-9.252c-.274-1.84.512-3.749 1.726-5.19 1.303-1.567 3.062-2.674 4.785-3.775.322-.205.665-.419.866-.746.17-.28.218-.574.178-.87.039.294-.011.587-.18.865-.2.328-.544.54-.864.748-1.724 1.1-3.483 2.207-4.786 3.773-1.215 1.443-2.002 3.354-1.725 5.195" fill="#e7adaa"/><path stroke-width="2.4" stroke-linecap="round" stroke-linejoin="round" fill="none" stroke="#231f20" d="M157.268 37.044c7.987 8.037 13.928 22.626 13.863 38.541.116-.025.238-.037.367-.037.482 0 .898.044 1.248.132 1.14.219 2.258.24 3.354.065a41.383 41.383 0 013.353-.394 4.25 4.25 0 011.578.032c.526.11 1.052.209 1.578.297.482.087.734.295.756.624.022.329-.01.668-.099 1.02-.087.394-.131.7-.131.92 0 .219.066.383.197.493.132.11.35.164.657.164.308 0 .746-.022 1.315-.066a35.325 35.325 0 004.077-.558c1.49-.285 3.002-.56 4.536-.822.132 0 .264-.022.395-.066.132-.044.263-.066.395-.066.789.044 1.27.175 1.446.395.175.22.24.723.197 1.512a81.286 81.286 0 00-.065 3.254c0 1.074.043 2.16.131 3.255 0 .745-.307 1.096-.92 1.052-.92-.088-1.841-.142-2.762-.165-.92-.021-1.84-.076-2.761-.164l-3.419-.263-3.42-.263c-.481-.044-.832.033-1.051.23-.22.197-.351.56-.394 1.085a65.116 65.116 0 01-.432 4.448 45.202 45.202 0 017.106-2.533c3.787-1 7.725-1.511 11.619-1.488l-.016-.098a289.205 289.205 0 00-.558-3.978 48.887 48.887 0 00-.757-3.978c-.13-.7-.076-1.14.165-1.315.241-.175.625-.24 1.15-.197h3.156v.066h1.48c.504 0 .997-.022 1.48-.066.482 0 .887.099 1.215.296.33.197.669.405 1.02.624.482.307.712.636.69.987-.022.35-.077.745-.165 1.183-.087.439-.01.68.23.724.242.043.494.065.757.065a38.11 38.11 0 008.547-1.117c.964-.22 1.907-.439 2.827-.658.92-.22 1.841-.438 2.761-.657.746-.22 1.206.087 1.381.92a9.33 9.33 0 01.526 2.63c.044.876.022 1.753-.065 2.63-.088 1.184-.68 1.687-1.775 1.512a37.565 37.565 0 00-6.444-.493 48.751 48.751 0 01-6.443-.362c-1.534-.219-2.39.417-2.565 1.907l-.037.341c4.759 1.087 9.202 3.107 12.913 6.158l1.392-.318c.526-.132.931-.11 1.216.065.285.176.406.614.362 1.315 0 .631.047 1.278.141 1.94a27.369 27.369 0 013.944 5.865c.446.89.256 1.263-.512 1.933-1.523 1.339-2.905 2.914-3.927 4.667.125.028.22.07.288.126.263.218.395.876.395 1.972-.044.79-.11 1.578-.198 2.367a7.99 7.99 0 00-.02.199c1.424-.25 2.831-.596 4.207-1.038a39.775 39.775 0 01-5.652 11.264c2.984-.605 5.631-2.58 7.188-5.194-1.09 6.42-3.288 11.783-6.299 16.22l-.08.502a166.983 166.983 0 01-.986 6.289c-.37 2.096-.698 4.212-.986 6.35-.33 2.836-.71 5.62-1.14 8.354-.432 2.733-.772 5.497-1.018 8.292-.041.452-.113.935-.216 1.449-.102.514-.38.791-.832.832-.206 0-.36-.072-.463-.215a1.725 1.725 0 01-.246-.556 3.926 3.926 0 01-.124-.709 5.928 5.928 0 00-.092-.678 22.554 22.554 0 01-.463-2.343c-.102-.74-.154-1.335-.154-1.787-.082-1.521-.082-2.888 0-4.1.083-1.213.103-2.394.062-3.545a43.832 43.832 0 00-.524-5.025 30.85 30.85 0 01-.4-4.91c-1.26.992-2.578 1.901-3.945 2.734.024.071.044.15.06.234.082.575.165 1.11.246 1.603.083.493.083.966 0 1.418 0 .698-.02 1.243-.061 1.634-.041.39-.154.708-.339.955-.185.247-.452.421-.801.524-.35.103-.833.216-1.45.34-.534.081-.811.266-.832.554-.02.288.03.596.155.925.492 1.192.986 2.374 1.479 3.545a23.63 23.63 0 001.788 3.422c.287.452.39.78.308.986-.082.206-.328.432-.74.679a34.938 34.938 0 01-2.805 1.541c-.925.452-1.921.822-2.99 1.11a.852.852 0 01-.37.061c-.246.123-.473.33-.678.617-.206.287-.473.308-.802.062a1.882 1.882 0 01-.74-.895 6.685 6.685 0 01-.37-1.14c-.328-1.562-.667-3.103-1.017-4.624-.349-1.52-.688-3.042-1.017-4.562-.082-.453-.226-.73-.432-.833-.205-.103-.472-.133-.801-.092-1.808.164-3.586.339-5.333.523a53.125 53.125 0 00-5.271.833c-.7.124-1.254.514-1.665 1.172-.133.211-.266.422-.397.633 5.583 4.483 10.597 10.094 13.954 16.47l.347 1.127c-.1-.363-.21-.731-.33-1.105 1.94 3.702 3.321 7.66 3.93 11.805l1.433 1.377c.315.314.634.65.961 1.008.323.357.664.76 1.02 1.207v-12.648h2.73v18.96l-5.798-5.572c.09 7.004-2.1 14.444-7.516 22.01-.069-1.734-.668-3.16-1.792-4.474a39.076 39.076 0 01-3.503 6.914c-.559-1.006-2.545-3.274-3.097-4.275-1.377 2.886-2.43 6.367-1.33 10.402l-.411.385c-1.238.074-2.48.157-3.709.237a14.395 14.395 0 004.365 3.143c-18.695-.344-31.15-7.985-39.426-17.6l-.009-.008c-3.115-3.622-5.636-7.52-7.672-11.415a9.838 9.838 0 01-4.55-1.458c-1.361 3.76-3.136 7.37-5.147 10.87l-.01.016c-4.686 8.163-11.67 16.066-20.17 20.331-6.688 3.361-14.56 4.143-14.095 3.48 1.326-1.886 2.685-3.08 2.736-5.621-3.314 3.294-9.829 5.856-11.621 4.152-.89-.852 2.48-4.045.222-9.711-3.839 2.307-4.205 7.565-6.034 6.025-2.049-1.732-2.398-4.046-2.683-6.552l-2.862 4.594c-.543.34-1.22-.11-1.675-.555-5.335-5.182-8.895-12.157-9.478-19.602-.528-6.79.324-13.73 2.561-20.175v-4.5h1.83a35.61 35.61 0 01.608-1.242c1.739-3.44 3.91-6.907 6.462-9.961l-.357.144c-.925.37-1.963.514-3.114.432-1.767.164-3.37-.083-4.809-.74-1.439-.658-2.733-1.624-3.884-2.898-1.04-1.117-1.954-2.46-2.741-4.029-4.554-1.928-8.796-4.75-12.456-8.087a63.04 63.04 0 01-7.373-7.965l-.026-.047c-.304-.393-.6-.785-.89-1.177-.413.275-.826.554-1.237.836-.616.452-1.079.832-1.387 1.14-.309.31-.483.628-.524.956-.041.329.04.7.246 1.11.206.411.535.925.987 1.541.329.37.668.678 1.017.925.35.247.689.514 1.018.802 2.219 1.85 4.418 3.699 6.596 5.549a296.358 296.358 0 006.659 5.487c1.11.863 1.675 1.613 1.696 2.25.02.637-.483 1.449-1.511 2.435a50.894 50.894 0 01-2.713 2.528c-.534.452-.986.657-1.356.616-.37-.04-.76-.349-1.172-.924a3125.839 3125.839 0 01-4.161-6.258 3292.212 3292.212 0 00-4.162-6.258 17.375 17.375 0 00-.77-.955 9.201 9.201 0 00-.895-.895 19.26 19.26 0 01-1.294-1.294c-.411-.452-.678-1.028-.802-1.726a.76.76 0 00-.123-.432c-.082-.123-.206-.164-.37-.123-.329 0-.493.205-.493.616a181.14 181.14 0 01-1.079 5.98 53.066 53.066 0 00-.832 5.92 19.427 19.427 0 01-.462 3.02 99.766 99.766 0 00-.648 2.898c-.041.205-.082.39-.123.555-.042.164-.165.247-.37.247-.206 0-.34-.083-.401-.247a3.583 3.583 0 01-.154-.555 213.41 213.41 0 01-.462-3.02 45.539 45.539 0 01-.34-3.084c-.164-2.384-.349-4.768-.555-7.151a68.429 68.429 0 00-.986-7.09 83.434 83.434 0 01-.802-5.395 39.96 39.96 0 01-.246-5.457c0-.863-.072-1.705-.216-2.527a34.886 34.886 0 00-.524-2.466c-.206-.74-.216-1.367-.031-1.88.185-.515.75-.69 1.696-.525.287.082.596.113.924.093.33-.02.7-.031 1.11-.031a61.514 61.514 0 012.198-.098c-3.421-9.107-3.228-16.81-2.02-20.196.079-.25.101-.556.33-.684.209-.118 1.497 2.438 5.447 3.739.182-.556.362-1.112.54-1.667-1.082-1.753-2.49-3.774-3.052-5.102 1.54-.192 3.409-.655 5.066-.95.087-.216.175-.432.266-.647-.931-.54-2.038-1.223-2.803-1.628.82-.993 2.404-1.83 4.014-2.486a2.3 2.3 0 00-.39-.554l-.46-.542c-.688-.023-1.272-.1-1.582-.28-.032-.047.224-.344.678-.791a874.275 874.275 0 01-5.08-6.079 493.803 493.803 0 00-6.443-7.627c-.438-.482-.624-.899-.559-1.25.066-.35.34-.7.822-1.051.482-.35.964-.647 1.447-.888.482-.241.964-.515 1.447-.822.832-.526 1.654-1.04 2.465-1.545a381.16 381.16 0 002.465-1.545c.351-.22.636-.307.855-.263.22.044.394.263.526.658a59.566 59.566 0 002.926 7.1c1.117 2.28 2.18 4.603 3.189 6.97.087.131.153.263.197.394.044.132.197.241.46.329.482-.877.866-1.797 1.15-2.762.286-.964.581-1.928.888-2.892.483-1.534.954-3.09 1.414-4.669.46-1.577.931-3.155 1.413-4.734.088-.438.242-.733.46-.887.22-.153.57-.142 1.053.033 1.315.482 2.684.81 4.109.986a11.89 11.89 0 014.043 1.25c.877.482 1.052 1.14.527 1.972l-1.71 3.024a26.064 26.064 0 00-1.512 3.156 19.48 19.48 0 01-1.58 3.114 54.337 54.337 0 018.092-1.068c.438-1.072.875-2.149 1.312-3.23a45.863 45.863 0 001.183-3.32c.351-1.117.702-2.246 1.052-3.386.264-.789.582-1.27.954-1.446.372-.175.931-.088 1.677.263.876.482 1.698 1.02 2.465 1.61a31.28 31.28 0 002.4 1.677c.789.526.942 1.228.46 2.104-.35.57-.657 1.129-.92 1.677s-.57 1.085-.92 1.61c-.22.395-.352.779-.395 1.151-.044.373.044.778.263 1.217l.166.325c.706.079 1.417.171 2.131.282l.015.001c4.3.645 8.743 1.832 13.1 3.749-.352-2.504-.69-5.03-1.013-7.58a19.697 19.697 0 00-.428-2.563 75.21 75.21 0 01-.558-2.564c-.176-.79-.187-1.272-.034-1.447.154-.175.625-.328 1.414-.46 1.14-.22 2.28-.296 3.419-.23 1.14.065 2.28-.011 3.419-.23.818-.173 1.414-.049 1.788.37.376-3.745 1.293-7.487 2.71-11.103.475-1.212 1.279-2.85 2.376-4.757 6.048-10.548 20.942-29.531 37.27-32.513-1.556 2.5-2.108 5.595-1.532 8.48a94.138 94.138 0 017.553-6.126c-1.043 2.486-1.208 5.325-.488 7.924.518-.705 3.623-4.929 4.325-4.938.221-.006.406.152.57.288a22.37 22.37 0 015.967 8.281c.964-2.052 1.811-4.09 1.434-6.317zM48.294 176.87l11.593 11.147c.315.314.634.65.961 1.008.323.357.664.76 1.02 1.207v-12.648H64.6v18.96l-11.818-11.356c-.315-.31-.621-.633-.915-.973-.298-.34-.574-.698-.842-1.072v12.686h-2.73zm-10.538 0l8.824 18.96h-3.13l-2.067-4.696h-7.23l-2.117 4.695h-3.114zm177.977.714h10.181v2.527h-7.221v4.567h7.221v2.603h-7.221v5.894h7.221v2.654h-10.181z"/><symbol id="a"><path d="M.257.456a.265.265 0 01.018.042.732.732 0 00.013.044L.31.613l.021.072a.023.023 0 00.007.014C.341.701.347.701.354.698A.322.322 0 01.417.683.188.188 0 00.478.664C.491.657.494.647.486.634L.46.588A.354.354 0 01.437.54.276.276 0 00.401.475a.593.593 0 01-.04-.062L.318.337.273.26.24.202.206.142A.268.268 0 01.187.1.274.274 0 00.166.058.163.163 0 00.143.029L.116 0a.15.15 0 00.006.06 3.858 3.858 0 01.05.156c.01.033.023.065.039.097.006.012.004.023-.005.033L.108.463.01.579C.003.586 0 .593.001.598c.001.005.006.011.013.016A.269.269 0 00.058.64l.038.024.037.023c.005.003.01.005.013.004C.149.69.152.687.154.681.167.644.182.608.199.573A2.02 2.02 0 00.25.461C.251.459.253.457.257.456z"/></symbol><symbol id="b"><path d="M.564.301L.563.275A.034.034 0 00.558.259.022.022 0 00.545.251.208.208 0 00.521.245C.512.244.508.241.508.236A.026.026 0 01.51.221L.534.164A.425.425 0 01.563.108C.568.101.569.095.568.092.567.089.563.085.556.081A.354.354 0 00.462.038L.456.037a.026.026 0 01-.011-.01C.442.022.437.022.432.026A.03.03 0 00.42.041a.064.064 0 00-.006.018L.398.134.381.208C.38.215.377.22.374.222a.027.027 0 01-.013.001L.275.215A.855.855 0 01.189.201.04.04 0 01.162.182L.129.129.096.075C.087.062.079.05.07.041A.335.335 0 01.044.007C.043.005.04.003.035.001a.024.024 0 00-.012 0C.02.004.018.006.019.008l.003.009.031.071.03.071.005.008C.09.17.09.173.087.176.084.179.081.181.078.181L.069.179A.155.155 0 00.048.175C.04.174.033.173.026.174L.009.176a.01.01 0 00-.008.007C0 .188 0 .192.002.195.003.198.005.199.006.2l.003.001a.142.142 0 01.022.007l.017.007a.189.189 0 00.039.011.04.04 0 01.02.008c.005.004.009.01.013.017l.028.07.028.07.035.083.034.083a.517.517 0 01.018.051l.016.051c.004.012.009.019.015.022.005.003.014.001.025-.004A.303.303 0 00.357.653.332.332 0 01.393.627C.405.619.407.608.4.595L.386.57.372.545A.07.07 0 01.366.528C.365.522.367.516.37.509L.409.432.445.354C.452.337.464.332.479.339L.51.353c.01.005.021.009.032.01C.552.365.558.361.56.35L.564.324a.088.088 0 000-.023M.359.317a.178.178 0 01-.008.045.54.54 0 00-.013.043L.333.427C.331.435.327.439.322.44.315.441.309.437.305.43L.294.409A.695.695 0 00.258.343L.218.279.214.273C.212.271.212.269.213.266.215.263.217.261.22.262l.008.002.062.017L.351.3a.01.01 0 01.008.007v.01z"/></symbol><symbol id="c"><path d="M.47.381A.196.196 0 01.443.348.262.262 0 00.419.314a.298.298 0 01-.02-.029L.38.255A.056.056 0 01.372.229C.371.22.375.212.382.205.388.198.39.192.388.187A.035.035 0 00.375.172a.174.174 0 00-.03-.02A.264.264 0 01.313.13.051.051 0 00.292.121.07.07 0 01.268.108C.266.107.264.108.263.111A.036.036 0 00.259.12L.216.261l-.043.14a.23.23 0 01-.012.034C.156.446.152.459.148.472A.064.064 0 01.14.435 1.395 1.395 0 00.135.29 1.018 1.018 0 01.134.093.154.154 0 00.132.05.266.266 0 00.121.011L.117.003C.116.001.113 0 .11 0 .105 0 .103.002.102.005L.1.015.087.079a.458.458 0 00-.01.063L.069.208a1.426 1.426 0 01-.011.064L.037.413l-.019.14a.263.263 0 01-.006.039L.003.631C0 .643 0 .65.003.653.005.656.012.658.024.66a.228.228 0 00.052.004.227.227 0 01.052.003C.141.67.15.668.156.661.161.654.162.644.159.631.156.619.158.609.166.601L.17.597.171.592a.137.137 0 01.01-.041.253.253 0 01.018-.037L.221.479a.397.397 0 00.02-.035.595.595 0 01.036-.06L.312.323C.317.316.321.312.324.313c.003 0 .007.004.01.012.028.06.054.121.078.183l.014.035A.488.488 0 00.44.577a.295.295 0 01.01.027l.008.028.006.021.005.023a.024.024 0 00.007.012c.003.002.006.002.01 0A.146.146 0 00.508.671C.516.663.522.658.526.657a.08.08 0 01.03-.022L.583.622A.418.418 0 00.611.605C.614.603.614.599.612.594L.604.577A.14.14 0 00.592.559L.584.547.571.529A.086.086 0 00.557.511.054.054 0 01.546.46.464.464 0 00.557.395L.564.329.575.231C.578.198.581.166.586.133l.01-.045A.358.358 0 00.605.043C.607.028.602.021.589.021L.525.02H.46a.019.019 0 00-.008.002C.449.023.448.027.449.032.457.09.462.149.464.208l.003.085.003.088z"/></symbol><symbol id="d"><path d="M.07.673h.023l.022.001A.038.038 0 00.134.67L.149.66C.156.655.16.65.16.645A.335.335 0 01.157.627C.156.62.157.617.161.616L.172.615a.58.58 0 01.13.017l.043.01.042.01C.398.655.405.651.408.638a.142.142 0 00.008-.04.267.267 0 00-.001-.04C.414.54.405.532.388.535A.648.648 0 01.29.543a.644.644 0 00-.098.005C.169.551.156.542.153.519L.145.464A.26.26 0 01.141.408C.142.399.143.393.146.39.149.387.155.385.164.384c.021 0 .041.003.06.008.019.005.039.01.059.013l.044.01.043.01C.378.427.384.427.389.424.393.421.395.415.394.404L.397.369A.145.145 0 00.398.333.038.038 0 00.391.315C.388.311.382.309.373.309.328.31.283.313.239.318A.063.063 0 01.215.317L.191.312.183.311.174.31.153.309C.148.308.144.307.142.304.139.301.138.298.138.293L.137.27.138.22A.423.423 0 00.133.17C.132.161.133.155.136.152.139.149.145.149.154.153a.083.083 0 00.021.006h.021a.79.79 0 01.165.024c.017.003.028.003.032 0S.399.17.399.153L.396.117A.11.11 0 01.398.081C.4.074.4.069.397.066A.035.035 0 00.382.059a.041.041 0 00-.031.002.111.111 0 01-.03.008 1.794 1.794 0 00-.077.01l-.078.01C.148.092.136.085.13.066L.126.054A.022.022 0 00.123.049L.121.043.119.03.117.016A.019.019 0 00.105.005C.092 0 .083 0 .079.004.074.009.071.014.071.018L.069.036.061.145.052.253.046.329l-.01.076C.033.426.03.446.029.467.028.488.025.509.022.53L.014.591a.637.637 0 01-.012.06C0 .662.001.668.005.671c.003.003.009.004.017.003H.07V.673z"/></symbol><symbol id="e"><path d="M.439.649a.386.386 0 01.062.009L.57.67l.006.001a.013.013 0 00.006.001C.594.671.601.669.604.666.607.663.608.655.607.643L.606.594l.002-.05C.608.533.603.527.594.528L.552.531.51.533.458.537.406.541C.399.542.393.541.39.538.387.535.385.529.384.521a.965.965 0 00-.01-.094A1.45 1.45 0 01.362.332a.16.16 0 010-.031.15.15 0 000-.03A11.437 11.437 0 00.346.138.207.207 0 00.333.076.302.302 0 01.318.015L.316.005C.315.002.312 0 .308 0a.008.008 0 00-.007.005.03.03 0 00-.002.009L.291.07.283.124.27.232a3.973 3.973 0 01-.025.203L.234.529a.044.044 0 01-.008.023C.222.557.215.558.204.557A.13.13 0 00.17.558L.135.562.108.563.062.567a.258.258 0 00-.043.007C.006.577 0 .58.001.584c0 .004.006.008.02.012A.822.822 0 00.134.62l.031.002.031.001C.207.624.214.626.217.63.22.633.22.641.218.653v.004L.217.661.215.669.211.677.209.684c-.001.002 0 .004.002.007a.025.025 0 00.018.008.1.1 0 00.019-.002.146.146 0 01.051-.001.443.443 0 00.075.006L.398.697C.405.696.409.693.41.688A.088.088 0 00.408.672L.406.658c0-.003.001-.006.003-.007C.411.649.414.648.419.648l.02.001z"/></symbol><use xlink:href="#a" transform="matrix(65.748 0 0 -65.748 28.998 121.703)" fill="#231f20"/><use xlink:href="#b" transform="matrix(65.748 0 0 -65.748 49.446 121.638)" fill="#231f20"/><use xlink:href="#c" transform="matrix(65.748 0 0 -65.748 86.988 121.309)" fill="#231f20"/><use xlink:href="#d" transform="matrix(65.748 0 0 -65.748 129.001 122.427)" fill="#231f20"/><use xlink:href="#e" transform="matrix(65.748 0 0 -65.748 156.55 121.506)" fill="#231f20"/><use xlink:href="#d" transform="matrix(65.748 0 0 -65.748 198.628 122.427)" fill="#231f20"/><use xlink:href="#a" stroke-width=".018" stroke-linecap="round" stroke-linejoin="round" transform="matrix(65.748 0 0 -65.748 28.998 121.703)" fill="none" stroke="#231f20"/><use xlink:href="#b" stroke-width=".018" stroke-linecap="round" stroke-linejoin="round" transform="matrix(65.748 0 0 -65.748 49.446 121.638)" fill="none" stroke="#231f20"/><use xlink:href="#c" stroke-width=".018" stroke-linecap="round" stroke-linejoin="round" transform="matrix(65.748 0 0 -65.748 86.988 121.309)" fill="none" stroke="#231f20"/><use xlink:href="#d" stroke-width=".018" stroke-linecap="round" stroke-linejoin="round" transform="matrix(65.748 0 0 -65.748 129.001 122.427)" fill="none" stroke="#231f20"/><use xlink:href="#e" stroke-width=".018" stroke-linecap="round" stroke-linejoin="round" transform="matrix(65.748 0 0 -65.748 156.55 121.506)" fill="none" stroke="#231f20"/><use xlink:href="#d" stroke-width=".018" stroke-linecap="round" stroke-linejoin="round" transform="matrix(65.748 0 0 -65.748 198.628 122.427)" fill="none" stroke="#231f20"/><symbol id="f"><path d="M.063.638L.097.64C.108.64.12.642.132.647A.052.052 0 00.157.65.03.03 0 00.176.635.058.058 0 00.184.613.033.033 0 00.177.588.036.036 0 01.172.563.151.151 0 00.171.526L.163.489.161.482C.16.479.161.477.164.476S.17.475.172.477a.48.48 0 01.047.052l.04.049a.76.76 0 00.037.043.229.229 0 01.034.046.013.013 0 00.008.007C.341.675.344.672.347.666A.671.671 0 01.378.623L.409.581C.416.571.42.564.419.561.418.557.412.552.402.545L.297.483A2.274 2.274 0 01.171.399.033.033 0 01.162.383C.161.378.163.372.166.365.169.358.175.35.182.34A.08.08 0 01.199.325L.215.312l.107-.09C.357.192.393.162.43.133.448.119.457.107.458.097.458.086.45.073.433.057A.824.824 0 00.389.016C.38.009.373.005.367.006.361.007.355.012.348.021a5.94 5.94 0 00-.067.102L.213.224.201.24.186.254.165.275a.052.052 0 00-.013.028A.014.014 0 01.15.31C.149.312.147.313.144.312.139.312.136.309.136.302L.119.205A.793.793 0 01.105.109.361.361 0 00.098.06.647.647 0 01.087.013L.085.004C.084.001.082 0 .079 0S.074.001.073.004L.07.013.063.062a.402.402 0 00-.006.05L.048.228a1.097 1.097 0 01-.016.115C.027.372.022.402.019.431a.64.64 0 00-.004.088.273.273 0 01-.003.041L.003.6a.054.054 0 000 .031C.006.639.015.642.03.639.035.638.04.637.045.638h.018z"/></symbol><symbol id="g"><path d="M.279.003a.143.143 0 00-.078.012.2.2 0 00-.063.047.266.266 0 00-.047.071.689.689 0 00-.049.146 1.172 1.172 0 00-.011.067L.016.46a1.054 1.054 0 00-.008.113l-.001.01-.002.01C0 .624.014.638.045.637a.62.62 0 01.061 0l.06.002.011.001.011-.001A.037.037 0 00.203.634.012.012 0 00.207.625L.205.612A.328.328 0 00.192.545C.187.527.184.51.181.495A1.1 1.1 0 01.17.363.435.435 0 01.186.225.095.095 0 01.201.191L.22.159C.225.15.234.144.247.139A.056.056 0 01.283.137.11.11 0 01.312.15.114.114 0 01.35.196c.005.01.009.022.014.037a.395.395 0 01.017.074L.393.38c.003.009.004.019.005.028l.003.028.003.022a.11.11 0 01.001.016v.03a.2.2 0 00.001.025l.001.024.001.027v.011c0 .004.002.007.007.008s.009 0 .011-.004L.43.583A.75.75 0 00.455.471L.467.357A.569.569 0 00.443.136L.423.081A.08.08 0 00.374.029.834.834 0 00.33.01.12.12 0 00.279.003z"/></symbol><symbol id="h"><path d="M.439.38L.426.29A.33.33 0 00.402.203 1.104 1.104 0 01.378.152.161.161 0 00.346.104L.328.087A.109.109 0 00.315.076L.301.067a1.169 1.169 0 00-.04-.02L.243.041A.45.45 0 00.187.034.246.246 0 01.123.023L.116.021.107.02A.069.069 0 01.099.017C.097.017.096.016.095.014L.093.006.088.004A.027.027 0 00.07.001C.061.002.055.005.051.01a2635.231 2635.231 0 01-.006.018L.044.043.042.074.04.105.039.121.037.173.036.217.035.266a1.545 1.545 0 01-.009.162L.017.523.013.568a.343.343 0 01-.009.044.098.098 0 00-.002.038l.004.037c.001.005.003.009.006.01a.014.014 0 00.009 0A.136.136 0 01.066.695c.015.002.03.002.045.001l.01-.002L.129.69A.05.05 0 01.148.673.058.058 0 01.17.665L.192.662C.199.661.207.66.214.657A.46.46 0 01.267.642.124.124 0 00.331.603L.344.586a.252.252 0 01.03-.035.337.337 0 00.056-.1A.2.2 0 00.439.38M.312.374a.209.209 0 01-.051.15.151.151 0 01-.049.037l-.054.02C.148.584.141.583.138.579A.049.049 0 01.131.555 3.638 3.638 0 00.119.408 4.346 4.346 0 01.107.261L.096.112A.06.06 0 01.099.084C.102.076.108.072.117.073A.27.27 0 01.158.08a.156.156 0 01.039.015.22.22 0 01.028.018.067.067 0 01.022.025.362.362 0 01.025.048l.022.051a.19.19 0 01.013.071c0 .024.002.046.005.066z"/></symbol><symbol id="i"><path d="M.066.257l.005-.01A.081.081 0 00.069.223.213.213 0 01.07.18.103.103 0 01.098.11.079.079 0 01.129.09.063.063 0 01.145.088a.06.06 0 01.019 0A.09.09 0 01.182.09l.012.002a.22.22 0 01.032.012.14.14 0 01.057.056.052.052 0 01.005.041A.117.117 0 01.27.24a.158.158 0 01-.028.03.417.417 0 01-.038.027 1.618 1.618 0 01-.101.069.256.256 0 00-.026.02.097.097 0 00-.021.027.118.118 0 00-.018.068c0 .023.005.044.014.062a.235.235 0 00.096.101c.009.005.02.009.033.011A.197.197 0 00.278.646a.512.512 0 00.055-.03.156.156 0 00.038-.032.294.294 0 00.028-.045C.408.521.401.507.38.496A.194.194 0 00.332.48 1.001 1.001 0 01.28.466C.269.462.262.466.259.477a.943.943 0 00-.006.025.067.067 0 01-.01.023.038.038 0 01-.009.009.04.04 0 01-.014.004C.203.538.191.532.184.519A.03.03 0 01.18.489.089.089 0 01.2.46.266.266 0 01.231.434L.265.412A.455.455 0 00.378.315.235.235 0 00.415.256.182.182 0 00.384.102.257.257 0 00.301.038a.306.306 0 00-.21-.029.09.09 0 00-.028.012.157.157 0 00-.052.061.325.325 0 00-.006.024L.002.12.001.13a.19.19 0 00.004.049c.003.015.008.03.013.045a.123.123 0 00.013.024.046.046 0 00.01.01.024.024 0 00.011.006C.056.265.059.264.06.261L.066.257z"/></symbol><symbol id="j"><path d="M.035.102a.746.746 0 000 .067c.001.019.002.038.001.057a.734.734 0 01-.008.082.428.428 0 00-.007.081L.018.48a1.36 1.36 0 00-.006.09L.01.591a.076.076 0 01-.006.02.028.028 0 00-.002.02L.006.65C.007.655.01.657.017.656A.14.14 0 01.058.653a.546.546 0 01.04.005.122.122 0 00.033.001L.164.655C.173.654.177.648.174.638L.158.576A.456.456 0 01.144.512L.128.41A3.172 3.172 0 01.094.172a2.074 2.074 0 01-.02-.159C.072.005.067.001.06 0 .057 0 .054.001.053.003a.036.036 0 00-.004.009.05.05 0 00-.002.012L.045.035a.279.279 0 00-.01.067z"/></symbol><use xlink:href="#f" transform="matrix(61.653 0 0 -61.653 29.062 168.561)" fill="#231f20"/><use xlink:href="#g" transform="matrix(61.653 0 0 -61.653 57.176 167.143)" fill="#231f20"/><use xlink:href="#h" transform="matrix(61.653 0 0 -61.653 87.941 169.24)" fill="#231f20"/><use xlink:href="#b" transform="matrix(61.653 0 0 -61.653 114.143 168.931)" fill="#231f20"/><use xlink:href="#i" transform="matrix(61.653 0 0 -61.653 150.642 167.637)" fill="#231f20"/><use xlink:href="#b" transform="matrix(61.653 0 0 -61.653 178.016 168.931)" fill="#231f20"/><use xlink:href="#j" transform="matrix(61.653 0 0 -61.653 215.13 168.253)" fill="#231f20"/><use xlink:href="#f" stroke-width=".019" stroke-linecap="round" stroke-linejoin="round" transform="matrix(61.653 0 0 -61.653 29.062 168.561)" fill="none" stroke="#231f20"/><use xlink:href="#g" stroke-width=".019" stroke-linecap="round" stroke-linejoin="round" transform="matrix(61.653 0 0 -61.653 57.176 167.143)" fill="none" stroke="#231f20"/><use xlink:href="#h" stroke-width=".019" stroke-linecap="round" stroke-linejoin="round" transform="matrix(61.653 0 0 -61.653 87.941 169.24)" fill="none" stroke="#231f20"/><use xlink:href="#b" stroke-width=".019" stroke-linecap="round" stroke-linejoin="round" transform="matrix(61.653 0 0 -61.653 114.143 168.931)" fill="none" stroke="#231f20"/><use xlink:href="#i" stroke-width=".019" stroke-linecap="round" stroke-linejoin="round" transform="matrix(61.653 0 0 -61.653 150.642 167.637)" fill="none" stroke="#231f20"/><use xlink:href="#b" stroke-width=".019" stroke-linecap="round" stroke-linejoin="round" transform="matrix(61.653 0 0 -61.653 178.016 168.931)" fill="none" stroke="#231f20"/><use xlink:href="#j" stroke-width=".019" stroke-linecap="round" stroke-linejoin="round" transform="matrix(61.653 0 0 -61.653 215.13 168.253)" fill="none" stroke="#231f20"/><symbol id="k"><path d="M.248.281h.199L.374.444.361.48.347.525.335.481.321.444.248.281M.569 0L.488.184H.205L.122 0H0l.346.743L.692 0H.569z"/></symbol><symbol id="l"><path d="M0 .028v.743L.454.334.492.295a.725.725 0 00.04-.048v.496h.107V0L.176.445.14.483.107.525V.028H0z"/></symbol><symbol id="m"><path d="M0 0v.715h.116V0H0z"/></symbol><symbol id="n"><path d="M.652.382a1.369 1.369 0 00-.006.046L.639.48A.4.4 0 00.606.381L.419 0 .232.389A.396.396 0 00.197.48C.197.465.195.449.193.433A.516.516 0 00.184.381L.107.029H0l.169.745L.38.323A3.154 3.154 0 00.419.226c.007.02.018.046.032.078L.46.323l.206.451.173-.745H.731L.652.382z"/></symbol><symbol id="o"><path d="M0 0v.715h.399V.616H.116V.437h.283V.335H.116V.104h.283V0H0z"/></symbol><symbol id="p"><path d="M0 .162l.093.043A.131.131 0 01.141.132a.152.152 0 01.09-.025c.035 0 .062.01.083.029.02.019.03.045.03.077 0 .042-.035.079-.105.112a.51.51 0 00-.18.115.171.171 0 00-.039.114c0 .059.02.106.059.142.04.036.092.054.156.054C.288.75.332.74.367.72A.164.164 0 00.441.632L.35.585a.139.139 0 01-.047.049.107.107 0 01-.059.016A.108.108 0 01.17.626.083.083 0 01.142.56c0-.043.041-.083.121-.12L.278.433A.43.43 0 00.424.338.176.176 0 00.463.221.21.21 0 00.399.06.243.243 0 00.226 0a.251.251 0 00-.15.042.2.2 0 00-.076.12z"/></symbol><symbol id="r"><path d="M.643.375a.274.274 0 01-.16.248.267.267 0 01-.201 0A.257.257 0 01.141.479a.279.279 0 010-.206.257.257 0 01.482 0c.013.032.02.066.02.102m.121 0A.366.366 0 00.528.028a.38.38 0 00-.293.001.38.38 0 00-.207.202.38.38 0 00.083.41.388.388 0 00.418.081.386.386 0 00.207-.203.37.37 0 00.028-.144z"/></symbol><symbol id="s"><path d="M0 0v.715h.116V.104h.26V0H0z"/></symbol><use xlink:href="#k" transform="matrix(25.517 0 0 -25.517 29.032 195.83)" fill="#231f20"/><use xlink:href="#l" transform="matrix(25.517 0 0 -25.517 48.4 196.545)" fill="#231f20"/><use xlink:href="#m" transform="matrix(25.517 0 0 -25.517 68.94 195.83)" fill="#231f20"/><use xlink:href="#n" transform="matrix(25.517 0 0 -25.517 74.401 196.57)" fill="#231f20"/><use xlink:href="#o" transform="matrix(25.517 0 0 -25.517 98.183 195.83)" fill="#231f20"/><use xlink:href="#p" transform="matrix(25.517 0 0 -25.517 110.712 196.315)" fill="#231f20"/><use xlink:href="#q" transform="matrix(25.517 0 0 -25.517 123.674 195.83)" fill="#231f20"/><use xlink:href="#r" transform="matrix(25.517 0 0 -25.517 132.682 196.315)" fill="#231f20"/><use xlink:href="#l" transform="matrix(25.517 0 0 -25.517 155.57 196.545)" fill="#231f20"/><use xlink:href="#s" transform="matrix(25.517 0 0 -25.517 176.06 195.83)" fill="#231f20"/><use xlink:href="#m" transform="matrix(25.517 0 0 -25.517 188.105 195.83)" fill="#231f20"/><use xlink:href="#l" transform="matrix(25.517 0 0 -25.517 195.326 196.545)" fill="#231f20"/><use xlink:href="#o" transform="matrix(25.517 0 0 -25.517 215.816 195.83)" fill="#231f20"/><use xlink:href="#k" stroke-width=".047" stroke-linecap="round" stroke-linejoin="round" transform="matrix(25.517 0 0 -25.517 29.032 195.83)" fill="none" stroke="#231f20"/><use xlink:href="#l" stroke-width=".047" stroke-linecap="round" stroke-linejoin="round" transform="matrix(25.517 0 0 -25.517 48.4 196.545)" fill="none" stroke="#231f20"/><use xlink:href="#m" stroke-width=".047" stroke-linecap="round" stroke-linejoin="round" transform="matrix(25.517 0 0 -25.517 68.94 195.83)" fill="none" stroke="#231f20"/><use xlink:href="#n" stroke-width=".047" stroke-linecap="round" stroke-linejoin="round" transform="matrix(25.517 0 0 -25.517 74.401 196.57)" fill="none" stroke="#231f20"/><use xlink:href="#o" stroke-width=".047" stroke-linecap="round" stroke-linejoin="round" transform="matrix(25.517 0 0 -25.517 98.183 195.83)" fill="none" stroke="#231f20"/><use xlink:href="#p" stroke-width=".047" stroke-linecap="round" stroke-linejoin="round" transform="matrix(25.517 0 0 -25.517 110.712 196.315)" fill="none" stroke="#231f20"/><use xlink:href="#q" stroke-width=".047" stroke-linecap="round" stroke-linejoin="round" transform="matrix(25.517 0 0 -25.517 123.674 195.83)" fill="none" stroke="#231f20"/><use xlink:href="#r" stroke-width=".047" stroke-linecap="round" stroke-linejoin="round" transform="matrix(25.517 0 0 -25.517 132.682 196.315)" fill="none" stroke="#231f20"/><use xlink:href="#l" stroke-width=".047" stroke-linecap="round" stroke-linejoin="round" transform="matrix(25.517 0 0 -25.517 155.57 196.545)" fill="none" stroke="#231f20"/><use xlink:href="#s" stroke-width=".047" stroke-linecap="round" stroke-linejoin="round" transform="matrix(25.517 0 0 -25.517 176.06 195.83)" fill="none" stroke="#231f20"/><use xlink:href="#m" stroke-width=".047" stroke-linecap="round" stroke-linejoin="round" transform="matrix(25.517 0 0 -25.517 188.105 195.83)" fill="none" stroke="#231f20"/><use xlink:href="#l" stroke-width=".047" stroke-linecap="round" stroke-linejoin="round" transform="matrix(25.517 0 0 -25.517 195.326 196.545)" fill="none" stroke="#231f20"/><use xlink:href="#o" stroke-width=".047" stroke-linecap="round" stroke-linejoin="round" transform="matrix(25.517 0 0 -25.517 215.816 195.83)" fill="none" stroke="#231f20"/><use xlink:href="#a" transform="matrix(65.748 0 0 -65.748 28.889 121.703)" fill="#fff684"/><use xlink:href="#b" transform="matrix(65.748 0 0 -65.748 49.336 121.638)" fill="#fff684"/><use xlink:href="#c" transform="matrix(65.748 0 0 -65.748 86.879 121.309)" fill="#fff684"/><use xlink:href="#d" transform="matrix(65.748 0 0 -65.748 128.892 122.427)" fill="#fff684"/><use xlink:href="#e" transform="matrix(65.748 0 0 -65.748 156.44 121.506)" fill="#fff684"/><use xlink:href="#d" transform="matrix(65.748 0 0 -65.748 198.519 122.427)" fill="#fff684"/><use xlink:href="#a" stroke-width=".003" stroke-miterlimit="22.926" transform="matrix(65.748 0 0 -65.748 28.889 121.703)" fill="none" stroke="#fff"/><use xlink:href="#b" stroke-width=".003" stroke-miterlimit="22.926" transform="matrix(65.748 0 0 -65.748 49.336 121.638)" fill="none" stroke="#fff"/><use xlink:href="#c" stroke-width=".003" stroke-miterlimit="22.926" transform="matrix(65.748 0 0 -65.748 86.879 121.309)" fill="none" stroke="#fff"/><use xlink:href="#d" stroke-width=".003" stroke-miterlimit="22.926" transform="matrix(65.748 0 0 -65.748 128.892 122.427)" fill="none" stroke="#fff"/><use xlink:href="#e" stroke-width=".003" stroke-miterlimit="22.926" transform="matrix(65.748 0 0 -65.748 156.44 121.506)" fill="none" stroke="#fff"/><use xlink:href="#d" stroke-width=".003" stroke-miterlimit="22.926" transform="matrix(65.748 0 0 -65.748 198.519 122.427)" fill="none" stroke="#fff"/><use xlink:href="#f" transform="matrix(61.653 0 0 -61.653 28.953 168.561)" fill="#fff684"/><use xlink:href="#g" transform="matrix(61.653 0 0 -61.653 57.067 167.143)" fill="#fff684"/><use xlink:href="#h" transform="matrix(61.653 0 0 -61.653 87.832 169.24)" fill="#fff684"/><use xlink:href="#b" transform="matrix(61.653 0 0 -61.653 114.034 168.931)" fill="#fff684"/><use xlink:href="#i" transform="matrix(61.653 0 0 -61.653 150.533 167.637)" fill="#fff684"/><use xlink:href="#b" transform="matrix(61.653 0 0 -61.653 177.907 168.931)" fill="#fff684"/><use xlink:href="#j" transform="matrix(61.653 0 0 -61.653 215.022 168.253)" fill="#fff684"/><use xlink:href="#f" stroke-width=".004" stroke-miterlimit="22.926" transform="matrix(61.653 0 0 -61.653 28.953 168.561)" fill="none" stroke="#fff"/><use xlink:href="#g" stroke-width=".004" stroke-miterlimit="22.926" transform="matrix(61.653 0 0 -61.653 57.067 167.143)" fill="none" stroke="#fff"/><use xlink:href="#h" stroke-width=".004" stroke-miterlimit="22.926" transform="matrix(61.653 0 0 -61.653 87.832 169.24)" fill="none" stroke="#fff"/><use xlink:href="#b" stroke-width=".004" stroke-miterlimit="22.926" transform="matrix(61.653 0 0 -61.653 114.034 168.931)" fill="none" stroke="#fff"/><use xlink:href="#i" stroke-width=".004" stroke-miterlimit="22.926" transform="matrix(61.653 0 0 -61.653 150.533 167.637)" fill="none" stroke="#fff"/><use xlink:href="#b" stroke-width=".004" stroke-miterlimit="22.926" transform="matrix(61.653 0 0 -61.653 177.907 168.931)" fill="none" stroke="#fff"/><use xlink:href="#j" stroke-width=".004" stroke-miterlimit="22.926" transform="matrix(61.653 0 0 -61.653 215.022 168.253)" fill="none" stroke="#fff"/><use xlink:href="#k" transform="matrix(25.517 0 0 -25.517 28.922 195.83)" fill="#fff684"/><use xlink:href="#l" transform="matrix(25.517 0 0 -25.517 48.29 196.545)" fill="#fff684"/><use xlink:href="#m" transform="matrix(25.517 0 0 -25.517 68.83 195.83)" fill="#fff684"/><use xlink:href="#n" transform="matrix(25.517 0 0 -25.517 74.291 196.57)" fill="#fff684"/><use xlink:href="#o" transform="matrix(25.517 0 0 -25.517 98.073 195.83)" fill="#fff684"/><use xlink:href="#p" transform="matrix(25.517 0 0 -25.517 110.602 196.315)" fill="#fff684"/><use xlink:href="#q" transform="matrix(25.517 0 0 -25.517 123.565 195.83)" fill="#fff684"/><use xlink:href="#r" transform="matrix(25.517 0 0 -25.517 132.572 196.315)" fill="#fff684"/><use xlink:href="#l" transform="matrix(25.517 0 0 -25.517 155.461 196.545)" fill="#fff684"/><use xlink:href="#s" transform="matrix(25.517 0 0 -25.517 175.951 195.83)" fill="#fff684"/><use xlink:href="#m" transform="matrix(25.517 0 0 -25.517 187.995 195.83)" fill="#fff684"/><use xlink:href="#l" transform="matrix(25.517 0 0 -25.517 195.216 196.545)" fill="#fff684"/><use xlink:href="#o" transform="matrix(25.517 0 0 -25.517 215.707 195.83)" fill="#fff684"/><use xlink:href="#k" stroke-width=".008" stroke-miterlimit="22.926" transform="matrix(25.517 0 0 -25.517 28.922 195.83)" fill="none" stroke="#fff"/><use xlink:href="#l" stroke-width=".008" stroke-miterlimit="22.926" transform="matrix(25.517 0 0 -25.517 48.29 196.545)" fill="none" stroke="#fff"/><use xlink:href="#m" stroke-width=".008" stroke-miterlimit="22.926" transform="matrix(25.517 0 0 -25.517 68.83 195.83)" fill="none" stroke="#fff"/><use xlink:href="#n" stroke-width=".008" stroke-miterlimit="22.926" transform="matrix(25.517 0 0 -25.517 74.291 196.57)" fill="none" stroke="#fff"/><use xlink:href="#o" stroke-width=".008" stroke-miterlimit="22.926" transform="matrix(25.517 0 0 -25.517 98.073 195.83)" fill="none" stroke="#fff"/><use xlink:href="#p" stroke-width=".008" stroke-miterlimit="22.926" transform="matrix(25.517 0 0 -25.517 110.602 196.315)" fill="none" stroke="#fff"/><use xlink:href="#q" stroke-width=".008" stroke-miterlimit="22.926" transform="matrix(25.517 0 0 -25.517 123.565 195.83)" fill="none" stroke="#fff"/><use xlink:href="#r" stroke-width=".008" stroke-miterlimit="22.926" transform="matrix(25.517 0 0 -25.517 132.572 196.315)" fill="none" stroke="#fff"/><use xlink:href="#l" stroke-width=".008" stroke-miterlimit="22.926" transform="matrix(25.517 0 0 -25.517 155.461 196.545)" fill="none" stroke="#fff"/><use xlink:href="#s" stroke-width=".008" stroke-miterlimit="22.926" transform="matrix(25.517 0 0 -25.517 175.951 195.83)" fill="none" stroke="#fff"/><use xlink:href="#m" stroke-width=".008" stroke-miterlimit="22.926" transform="matrix(25.517 0 0 -25.517 187.995 195.83)" fill="none" stroke="#fff"/><use xlink:href="#l" stroke-width=".008" stroke-miterlimit="22.926" transform="matrix(25.517 0 0 -25.517 195.216 196.545)" fill="none" stroke="#fff"/><use xlink:href="#o" stroke-width=".008" stroke-miterlimit="22.926" transform="matrix(25.517 0 0 -25.517 215.707 195.83)" fill="none" stroke="#fff"/></g></svg>