<svg xmlns="http://www.w3.org/2000/svg" xmlns:xlink="http://www.w3.org/1999/xlink" width="345.6" height="345.6" viewBox="0 0 259.2 259.2"><g data-name="Camada 1"><symbol id="a"><path d="M.327.697L.484.67A6.195 6.195 0 01.15 0L0 .01l.104.218L.022.62l.19.088A2.7 2.7 0 01.208.596C.207.551.21.506.215.461l.112.236z"/></symbol><symbol id="b"><path d="M0 0c.096.244.173.48.233.706l.296.05a4.021 4.021 0 01-.046-.7L.276.008.291.13.226.118.205.031 0 0m.307.262L.352.63H.351L.259.252l.048.01z"/></symbol><symbol id="c"><path d="M0 .041c.088.223.155.449.201.68l.234.038L.401.401l.092.331.224.039a4.585 4.585 0 01-.04-.574V.096L.478.061l.035.427L.385.015.277 0l.065.602L.203.068 0 .041z"/></symbol><symbol id="d"><path d="M.253.545L.239.489.229.436l.156.033L.376.334A3.222 3.222 0 01.202.3L.195.261.188.223l.181.026L.357.067A2.147 2.147 0 010 0l.116.7.326.048L.429.566A1.982 1.982 0 01.253.545z"/></symbol><symbol id="e"><path d="M.414.731L.408.55a4.344 4.344 0 01-.13-.01A3.753 3.753 0 01.191.043L.026 0l.09.52L.064.511.012.501 0 .683l.414.048z"/></symbol><use xlink:href="#a" transform="matrix(60.572 0 0 -60.572 63.34 66.914)" fill="#e7adaa"/><use xlink:href="#b" transform="matrix(60.572 0 0 -60.572 79.027 68.125)" fill="#e7adaa"/><use xlink:href="#c" transform="matrix(60.572 0 0 -60.572 105.013 70.184)" fill="#e7adaa"/><use xlink:href="#d" transform="matrix(60.572 0 0 -60.572 145.475 67.398)" fill="#e7adaa"/><use xlink:href="#e" transform="matrix(60.572 0 0 -60.572 171.52 67.398)" fill="#e7adaa"/><use xlink:href="#d" transform="matrix(60.572 0 0 -60.572 188.905 67.398)" fill="#e7adaa"/><symbol id="f"><path d="M.119.705l.168.031A3.03 3.03 0 01.254.6c.057.05.108.097.155.143l.123-.08L.34.492.447.094.272 0 .203.368A4.258 4.258 0 01.155.057L0 .014l.119.691z"/></symbol><symbol id="g"><path d="M.121.691l.167.031A4.615 4.615 0 01.189.263l.092.039.069.389.167.031A4.997 4.997 0 01.385.043L.229 0l.019.109A16.102 16.102 0 000 0l.121.691z"/></symbol><symbol id="h"><path d="M.116.692a.622.622 0 00.191.037C.365.729.41.714.441.683A.22.22 0 00.504.524.565.565 0 00.316.151.573.573 0 000 0a2.4 2.4 0 00.02.128l.079.45C.11.645.116.683.116.692M.256.53A3.663 3.663 0 01.188.168c.039.037.073.08.104.129.038.06.057.111.057.154C.349.507.318.533.256.53z"/></symbol><symbol id="i"><path d="M.454.537L.38.508.307.48c0 .031-.009.046-.026.046C.257.526.233.512.209.485.192.465.185.445.188.426.19.414.202.408.225.408c.012 0 .028.002.049.006a.347.347 0 00.074.008C.403.422.434.404.444.366A.222.222 0 00.447.329.25.25 0 00.401.194a.495.495 0 00-.17-.16A.22.22 0 00.117 0a.193.193 0 00-.099.028c.016.04.042.097.078.174A.111.111 0 01.195.185a.28.28 0 01.057.022c.026.015.039.029.039.044 0 .017-.013.025-.04.025A.438.438 0 01.172.265a.395.395 0 00-.08-.012.098.098 0 00-.056.014C.011.284 0 .31.005.346c.008.072.055.156.14.251.086.097.161.149.223.153C.429.754.459.708.459.614A.54.54 0 00.454.537z"/></symbol><symbol id="j"><path d="M.12.691l.168.031A4.829 4.829 0 01.155.043L0 0l.12.691z"/></symbol><use xlink:href="#f" transform="matrix(56.799 0 0 -56.799 59.586 111.897)" fill="#e7adaa"/><use xlink:href="#g" transform="matrix(56.799 0 0 -56.799 84.35 111.102)" fill="#e7adaa"/><use xlink:href="#h" transform="matrix(56.799 0 0 -56.799 107.865 111.102)" fill="#e7adaa"/><use xlink:href="#b" transform="matrix(56.799 0 0 -56.799 127.688 111.783)" fill="#e7adaa"/><use xlink:href="#i" transform="matrix(56.799 0 0 -56.799 155.463 112.18)" fill="#e7adaa"/><use xlink:href="#b" transform="matrix(56.799 0 0 -56.799 175.058 111.783)" fill="#e7adaa"/><use xlink:href="#j" transform="matrix(56.799 0 0 -56.799 203.117 111.102)" fill="#e7adaa"/><symbol id="k"><path d="M.248.281h.199L.374.444.361.48.347.525.335.481.321.444.248.281M.569 0L.488.184H.205L.122 0H0l.346.743L.692 0H.569z"/></symbol><symbol id="l"><path d="M0 .028v.743L.454.334.492.295a.725.725 0 00.04-.048v.496h.107V0L.176.445.14.483.107.525V.028H0z"/></symbol><symbol id="m"><path d="M0 0v.715h.116V0H0z"/></symbol><symbol id="n"><path d="M.652.382a1.369 1.369 0 00-.006.046L.639.48A.4.4 0 00.606.381L.419 0 .232.389A.396.396 0 00.197.48C.197.465.195.449.193.433A.516.516 0 00.184.381L.107.029H0l.169.745L.38.323A3.154 3.154 0 00.419.226c.007.02.018.046.032.078L.46.323l.206.451.173-.745H.731L.652.382z"/></symbol><symbol id="o"><path d="M0 0v.715h.399V.616H.116V.437h.283V.335H.116V.104h.283V0H0z"/></symbol><symbol id="p"><path d="M0 .162l.093.043A.131.131 0 01.141.132a.152.152 0 01.09-.025c.035 0 .062.01.083.029.02.019.03.045.03.077 0 .042-.035.079-.105.112a.51.51 0 00-.18.115.171.171 0 00-.039.114c0 .059.02.106.059.142.04.036.092.054.156.054C.288.75.332.74.367.72A.164.164 0 00.441.632L.35.585a.139.139 0 01-.047.049.107.107 0 01-.059.016A.108.108 0 01.17.626.083.083 0 01.142.56c0-.043.041-.083.121-.12L.278.433A.43.43 0 00.424.338.176.176 0 00.463.221.21.21 0 00.399.06.243.243 0 00.226 0a.251.251 0 00-.15.042.2.2 0 00-.076.12z"/></symbol><symbol id="r"><path d="M.643.375a.274.274 0 01-.16.248.267.267 0 01-.201 0A.257.257 0 01.141.479a.279.279 0 010-.206.257.257 0 01.482 0c.013.032.02.066.02.102m.121 0A.366.366 0 00.528.028a.38.38 0 00-.293.001.38.38 0 00-.207.202.38.38 0 00.083.41.388.388 0 00.418.081.386.386 0 00.207-.203.37.37 0 00.028-.144z"/></symbol><symbol id="s"><path d="M0 0v.715h.116V.104h.26V0H0z"/></symbol><use xlink:href="#k" transform="matrix(20.696 0 0 -20.696 59.586 128.946)" fill="#8dd8f8"/><use xlink:href="#l" transform="matrix(20.696 0 0 -20.696 75.294 129.525)" fill="#8dd8f8"/><use xlink:href="#m" transform="matrix(20.696 0 0 -20.696 91.955 128.946)" fill="#8dd8f8"/><use xlink:href="#n" transform="matrix(20.696 0 0 -20.696 96.384 129.546)" fill="#8dd8f8"/><use xlink:href="#o" transform="matrix(20.696 0 0 -20.696 115.672 128.946)" fill="#8dd8f8"/><use xlink:href="#p" transform="matrix(20.696 0 0 -20.696 125.834 129.339)" fill="#8dd8f8"/><use xlink:href="#q" transform="matrix(20.696 0 0 -20.696 136.348 128.946)" fill="#8dd8f8"/><use xlink:href="#r" transform="matrix(20.696 0 0 -20.696 143.653 129.339)" fill="#8dd8f8"/><use xlink:href="#l" transform="matrix(20.696 0 0 -20.696 162.218 129.525)" fill="#8dd8f8"/><use xlink:href="#s" transform="matrix(20.696 0 0 -20.696 178.837 128.946)" fill="#8dd8f8"/><use xlink:href="#m" transform="matrix(20.696 0 0 -20.696 188.605 128.946)" fill="#8dd8f8"/><use xlink:href="#l" transform="matrix(20.696 0 0 -20.696 194.462 129.525)" fill="#8dd8f8"/><use xlink:href="#o" transform="matrix(20.696 0 0 -20.696 211.08 128.946)" fill="#8dd8f8"/><use xlink:href="#a" transform="matrix(60.572 0 0 -60.572 63.34 183.074)" fill="#8dd8f8"/><use xlink:href="#b" transform="matrix(60.572 0 0 -60.572 79.027 184.285)" fill="#8dd8f8"/><use xlink:href="#c" transform="matrix(60.572 0 0 -60.572 105.013 186.345)" fill="#8dd8f8"/><use xlink:href="#d" transform="matrix(60.572 0 0 -60.572 145.475 183.559)" fill="#8dd8f8"/><use xlink:href="#e" transform="matrix(60.572 0 0 -60.572 171.52 183.559)" fill="#8dd8f8"/><use xlink:href="#d" transform="matrix(60.572 0 0 -60.572 188.905 183.559)" fill="#8dd8f8"/><use xlink:href="#f" transform="matrix(56.799 0 0 -56.799 59.586 228.057)" fill="#8dd8f8"/><use xlink:href="#g" transform="matrix(56.799 0 0 -56.799 84.35 227.262)" fill="#8dd8f8"/><use xlink:href="#h" transform="matrix(56.799 0 0 -56.799 107.865 227.262)" fill="#8dd8f8"/><use xlink:href="#b" transform="matrix(56.799 0 0 -56.799 127.688 227.944)" fill="#8dd8f8"/><use xlink:href="#i" transform="matrix(56.799 0 0 -56.799 155.463 228.341)" fill="#8dd8f8"/><use xlink:href="#b" transform="matrix(56.799 0 0 -56.799 175.058 227.944)" fill="#8dd8f8"/><use xlink:href="#j" transform="matrix(56.799 0 0 -56.799 203.117 227.262)" fill="#8dd8f8"/><use xlink:href="#k" transform="matrix(20.696 0 0 -20.696 59.586 245.106)" fill="#e7a39f"/><use xlink:href="#l" transform="matrix(20.696 0 0 -20.696 75.294 245.686)" fill="#e7a39f"/><use xlink:href="#m" transform="matrix(20.696 0 0 -20.696 91.955 245.106)" fill="#e7a39f"/><use xlink:href="#n" transform="matrix(20.696 0 0 -20.696 96.384 245.706)" fill="#e7a39f"/><use xlink:href="#o" transform="matrix(20.696 0 0 -20.696 115.672 245.106)" fill="#e7a39f"/><use xlink:href="#p" transform="matrix(20.696 0 0 -20.696 125.834 245.5)" fill="#e7a39f"/><use xlink:href="#q" transform="matrix(20.696 0 0 -20.696 136.348 245.106)" fill="#e7a39f"/><use xlink:href="#r" transform="matrix(20.696 0 0 -20.696 143.653 245.5)" fill="#e7a39f"/><use xlink:href="#l" transform="matrix(20.696 0 0 -20.696 162.218 245.686)" fill="#e7a39f"/><use xlink:href="#s" transform="matrix(20.696 0 0 -20.696 178.837 245.106)" fill="#e7a39f"/><use xlink:href="#m" transform="matrix(20.696 0 0 -20.696 188.605 245.106)" fill="#e7a39f"/><use xlink:href="#l" transform="matrix(20.696 0 0 -20.696 194.462 245.686)" fill="#e7a39f"/><use xlink:href="#o" transform="matrix(20.696 0 0 -20.696 211.08 245.106)" fill="#e7a39f"/></g></svg>