<svg xmlns="http://www.w3.org/2000/svg" width="345.6" height="345.6" viewBox="0 0 259.2 259.2"><g data-name="Camada 1"><path d="M49.307 17.605l6 22.32-5.76 15.36 2.16 5.76-6.002 41.64 7.68-1.08-7.08 20.28 165.12.72.479-21.478-8.76.12 9.72-47.16-10.32 1.56 5.64-48-20.756 3.503-.048-1.682-22.28 2.43-3.592-4.065-24.477 2.658-30.254 2.274-4.073-4.278-19.665 3.198-16.799-.43z" fill="#e7a39f" fill-rule="evenodd"/><path d="M73.076 14.124l9.52 1.656c-8.51 14.951-15.254 28.47-20.23 40.573l-9.107-.595 6.27-13.185L54.56 18.79l11.54-5.32c-.121 1.816-.202 4.088-.243 6.803-.04 2.726.101 5.452.414 8.168zm-4.129 43.44c5.795-14.789 10.49-29.054 14.084-42.773l17.98-3.019c-2.05 11.943-2.979 26.087-2.787 42.41L85.686 57.08l.888-7.4-3.968.768-1.241 5.219zm18.576-15.839l2.716-22.33h-.061L84.626 42.28zm7.38 15.416c5.32-13.488 9.388-27.217 12.184-41.18l14.134-2.311-2.03 21.705 5.543-20.05 13.588-2.382c-1.605 12.862-2.412 24.461-2.412 34.799v6.097l-12.054 2.13 2.1-25.904-7.743 28.68-6.512.9 3.907-36.445-8.4 32.305zm55.776-33.325a58.387 58.387 0 00-.817 3.382l-.657 3.26 9.47-2.018-.535 8.177c-4.472.787-7.986 1.474-10.54 2.07a47.97 47.97 0 00-.404 2.362l-.444 2.292 10.974-1.586-.767 11.005c-5.684.474-12.882 1.827-21.595 4.078l7.037-42.41 19.706-2.898-.777 11.004c-3.867.353-7.41.777-10.65 1.282zm35.829-11.256l-.354 10.994a204.9 204.9 0 00-7.864.595c-2.605 10.913-4.361 20.948-5.27 30.084l-9.994 2.605 5.441-31.467a88.65 88.65 0 00-3.19.525l-3.14.596-.706-11.045zm7.591 11.256a58.552 58.552 0 00-.817 3.382l-.657 3.26 9.47-2.018-.535 8.177c-4.472.787-7.985 1.474-10.54 2.07a47.97 47.97 0 00-.403 2.362l-.445 2.292 10.974-1.586-.767 11.005c-5.684.474-12.882 1.827-21.594 4.078l7.036-42.41 19.706-2.898-.777 11.004c-3.866.353-7.41.777-10.65 1.282" fill="#fff"/><path d="M56.274 61.322l9.543-1.79c-.89 3.257-1.515 5.841-1.894 7.725a226.684 226.684 0 008.823-8.122l6.958 4.553-10.896 9.732 6.106 22.587-9.987 5.33-3.882-20.912A257.665 257.665 0 0058.281 98.1l-8.775 2.442zm24.86-.01l9.485-1.78c-2.556 9.694-4.44 18.394-5.661 26.09l5.273-2.225 3.88-22.085 9.486-1.78C99.744 74.699 97.255 87.554 96.11 98.1l-8.88 2.442 1.108-6.162c-3.105 1.372-7.8 3.426-14.086 6.162zm23.22-.066c4.26-1.41 7.858-2.111 10.82-2.111 3.323 0 5.86.871 7.602 2.613 2.405 2.47 3.597 5.49 3.597 9.04 0 1.297-.16 2.67-.492 4.109-1.448 6.513-4.847 12.202-10.204 17.068-5.368 4.865-11.341 7.724-17.92 8.576.075-.814.463-3.237 1.164-7.27l4.44-25.53c.624-3.816.956-5.974.994-6.495zm7.933 9.173c-1.704 7.251-2.991 14.105-3.88 20.58 2.214-2.11 4.193-4.544 5.935-7.317 2.149-3.408 3.218-6.324 3.218-8.766 0-3.143-1.76-4.639-5.273-4.497zm5.292 30.804c5.434-13.869 9.836-27.244 13.206-40.11l16.86-2.83c-1.922 11.199-2.793 24.461-2.613 39.768l-11.757 2.717.833-6.938-3.72.719-1.165 4.894zm17.418-14.853l2.547-20.94h-.057l-5.207 21.46zm36.124-15.222c-1.183.445-2.584.975-4.212 1.61l-4.156 1.599c0-1.732-.483-2.603-1.448-2.603-1.364 0-2.736.776-4.1 2.329-.965 1.145-1.372 2.253-1.22 3.322.113.71.814 1.06 2.101 1.06.71 0 1.628-.113 2.774-.33 1.59-.342 3-.503 4.222-.503 3.105 0 4.913 1.07 5.434 3.22a9.57 9.57 0 01.217 2.11c0 2.367-.88 4.923-2.66 7.668-2.29 3.588-5.51 6.607-9.646 9.05-2.187 1.297-4.326 1.94-6.437 1.94-1.922 0-3.806-.54-5.661-1.609.927-2.225 2.404-5.51 4.44-9.845 1.183.824 2.442 1.23 3.767 1.23a6.7 6.7 0 001.837-.274 15.204 15.204 0 003.266-1.278c1.486-.814 2.224-1.647 2.224-2.499 0-.928-.757-1.392-2.272-1.392-1.041 0-2.546.209-4.525.635-1.978.426-3.483.643-4.515.643-1.373 0-2.423-.265-3.162-.776-1.448-.965-2.035-2.461-1.78-4.496.483-4.1 3.124-8.842 7.933-14.238 4.913-5.538 9.154-8.444 12.704-8.7 3.436-.217 5.16 2.367 5.16 7.754 0 1.287-.095 2.745-.285 4.373zm-6.228 30.075c5.433-13.869 9.835-27.244 13.205-40.11l16.86-2.83c-1.922 11.199-2.793 24.461-2.613 39.768l-11.757 2.717.833-6.938-3.72.719-1.165 4.894zM182.31 86.37l2.546-20.94h-.056l-5.207 21.46zm17.437-25.058l9.533-1.78c-3.844 14.835-6.352 27.69-7.536 38.567l-8.822 2.442zM54.639 112.57h4.125l-1.518-3.373c-.086-.214-.179-.463-.272-.742-.093-.28-.19-.59-.283-.935-.08.325-.166.625-.259.904-.09.28-.182.538-.276.773zm6.65 5.816l-1.676-3.809h-5.864l-1.718 3.809h-2.525l7.164-15.377 7.158 15.377zm3.929 0v-15.377l9.403 9.04c.255.255.514.528.78.818.261.29.537.617.827.98v-10.259h2.214v15.377l-9.585-9.21a13.423 13.423 0 01-.742-.79 11.205 11.205 0 01-.683-.869v10.29zm16.663 0v-14.798h2.401v14.798zm17.926-7.306c-.028-.114-.072-.431-.13-.949l-.142-1.072a7.638 7.638 0 01-.259 1.01 8.45 8.45 0 01-.42 1.031l-3.871 7.886-3.87-8.047a11.31 11.31 0 01-.728-1.88c-.007.31-.031.634-.076.976-.045.341-.11.696-.196 1.065l-1.587 7.286h-2.215l3.498-15.419 4.367 9.337c.066.145.169.394.307.735.138.345.304.77.5 1.273.141-.424.366-.963.67-1.614.079-.176.14-.31.179-.404l4.266-9.327 3.577 15.419h-2.235zm5.791 7.306v-14.798h8.258v2.049H108v3.705h5.857v2.11H108v4.781h5.857v2.153zm10.165-2.964l1.918-.886c.183.659.517 1.163 1.004 1.508.483.348 1.104.52 1.86.52.717 0 1.282-.2 1.706-.596.421-.397.632-.928.632-1.594 0-.87-.721-1.645-2.166-2.325a9.95 9.95 0 00-.466-.22c-1.632-.797-2.718-1.515-3.26-2.16-.541-.645-.814-1.431-.814-2.36 0-1.206.41-2.183 1.228-2.931.818-.749 1.894-1.12 3.222-1.12 1.09 0 2.004.21 2.739.63a3.323 3.323 0 011.524 1.811l-1.876.973c-.297-.466-.621-.807-.976-1.021a2.292 2.292 0 00-1.221-.324c-.645 0-1.163.169-1.542.506-.383.335-.573.787-.573 1.353 0 .89.838 1.72 2.511 2.487.128.062.228.11.304.141 1.462.676 2.466 1.335 3.011 1.976.545.646.817 1.45.817 2.412 0 1.4-.441 2.514-1.324 3.339-.883.824-2.076 1.238-3.58 1.238-1.26 0-2.29-.29-3.098-.87-.804-.579-1.331-1.407-1.58-2.487zm31.12-4.404c0-.749-.138-1.46-.41-2.132a5.54 5.54 0 00-1.177-1.797 5.203 5.203 0 00-1.731-1.197 5.271 5.271 0 00-2.077-.42 5.253 5.253 0 00-3.832 1.618 5.36 5.36 0 00-1.173 1.786 5.715 5.715 0 00-.403 2.142c0 .748.134 1.455.403 2.121.27.666.662 1.263 1.173 1.787a5.244 5.244 0 003.832 1.618c.721 0 1.404-.138 2.056-.414a5.547 5.547 0 003.339-5.112zm2.504 0a7.604 7.604 0 01-.59 2.98 7.588 7.588 0 01-1.725 2.508 8.013 8.013 0 01-2.576 1.686 7.89 7.89 0 01-3.008.587 8.022 8.022 0 01-3.049-.59 7.892 7.892 0 01-2.56-1.683 7.496 7.496 0 01-1.717-2.498 7.642 7.642 0 01-.586-2.99c0-1.059.196-2.056.586-2.99a7.579 7.579 0 011.718-2.519 7.824 7.824 0 012.566-1.676 8.101 8.101 0 013.042-.576 8.05 8.05 0 013.025.576 7.792 7.792 0 012.56 1.677 7.826 7.826 0 011.724 2.531c.393.942.59 1.932.59 2.977zm2.756 7.368v-15.377l9.403 9.04c.255.255.514.528.78.818.261.29.537.617.827.98v-10.259h2.214v15.377l-9.585-9.21a13.455 13.455 0 01-.742-.79 11.206 11.206 0 01-.683-.869v10.29zm16.622 0v-14.798h2.4v12.645h5.382v2.153zm9.772 0v-14.798h2.4v14.798zm5.86 0v-15.377l9.403 9.04c.255.255.514.528.78.818.262.29.537.617.827.98v-10.259h2.215v15.377l-9.586-9.21a13.455 13.455 0 01-.742-.79 11.23 11.23 0 01-.683-.869v10.29zm16.622 0v-14.798h8.258v2.049h-5.857v3.705h5.857v2.11h-5.857v4.781h5.857v2.153z" fill="#fff"/><path d="M49.307 142.405l6 22.32-5.76 15.36 2.16 5.76-6.002 41.64 7.68-1.08-7.08 20.28 165.12.72.479-21.478-8.76.12 9.72-47.16-10.32 1.56 5.64-48-20.756 3.503-.048-1.682-22.28 2.43-3.592-4.065-24.477 2.658-30.254 2.274-4.073-4.278-19.665 3.199-16.799-.43z" fill="#8dd8f8" fill-rule="evenodd"/><path d="M73.076 138.925l9.52 1.655c-8.51 14.951-15.254 28.47-20.23 40.573l-9.107-.595 6.27-13.185-4.968-23.784 11.54-5.32c-.121 1.817-.202 4.088-.243 6.804-.04 2.725.101 5.451.414 8.167zm-4.129 43.44c5.795-14.79 10.49-29.055 14.084-42.774l17.98-3.019c-2.05 11.943-2.979 26.087-2.787 42.41l-12.538 2.898.888-7.4-3.968.768-1.241 5.219zm18.576-15.84l2.716-22.33h-.061l-5.552 22.886zm7.38 15.416c5.32-13.487 9.388-27.217 12.184-41.179l14.134-2.312-2.03 21.705 5.543-20.05 13.588-2.382c-1.605 12.862-2.412 24.461-2.412 34.799v6.097l-12.054 2.13 2.1-25.904-7.743 28.681-6.512.898 3.907-36.444-8.4 32.305zm55.776-33.325a58.387 58.387 0 00-.817 3.382l-.657 3.26 9.47-2.018-.535 8.177c-4.472.787-7.986 1.474-10.54 2.07a47.97 47.97 0 00-.404 2.362l-.444 2.292 10.974-1.585-.767 11.004c-5.684.474-12.882 1.827-21.595 4.078l7.037-42.41 19.706-2.898-.777 11.004c-3.867.353-7.41.777-10.65 1.282zm35.829-11.256l-.354 10.994a204.9 204.9 0 00-7.864.595c-2.605 10.913-4.361 20.948-5.27 30.084l-9.994 2.605 5.441-31.467a88.65 88.65 0 00-3.19.525l-3.14.596-.706-11.045zm7.591 11.256a58.552 58.552 0 00-.817 3.382l-.657 3.26 9.47-2.018-.535 8.177c-4.472.787-7.985 1.474-10.54 2.07a47.97 47.97 0 00-.403 2.362l-.445 2.292 10.974-1.585-.767 11.004c-5.684.474-12.882 1.827-21.594 4.078l7.036-42.41 19.706-2.898-.777 11.004c-3.866.353-7.41.777-10.65 1.282" fill="#fff"/><path d="M56.274 186.122l9.543-1.79c-.89 3.257-1.515 5.841-1.894 7.725a226.606 226.606 0 008.823-8.122l6.958 4.554-10.896 9.731 6.106 22.587-9.987 5.33-3.882-20.912a257.655 257.655 0 00-2.764 17.674l-8.775 2.442zm24.86-.01l9.485-1.78c-2.556 9.694-4.44 18.394-5.661 26.09l5.273-2.224 3.88-22.086 9.486-1.78c-3.853 15.166-6.342 28.022-7.488 38.567l-8.88 2.442 1.108-6.162c-3.105 1.372-7.8 3.427-14.086 6.162zm23.22-.066c4.26-1.41 7.858-2.11 10.82-2.11 3.323 0 5.86.87 7.602 2.612 2.405 2.47 3.597 5.49 3.597 9.04 0 1.297-.16 2.67-.492 4.109-1.448 6.513-4.847 12.202-10.204 17.068-5.368 4.865-11.341 7.724-17.92 8.576.075-.814.463-3.237 1.164-7.27l4.44-25.53c.624-3.816.956-5.974.994-6.495zm7.933 9.173c-1.704 7.252-2.991 14.105-3.88 20.58 2.214-2.11 4.193-4.544 5.935-7.317 2.149-3.408 3.218-6.324 3.218-8.766 0-3.143-1.76-4.639-5.273-4.497zm5.292 30.804c5.434-13.868 9.836-27.244 13.206-40.11l16.86-2.83c-1.922 11.2-2.793 24.462-2.613 39.769l-11.757 2.717.833-6.94-3.72.72-1.165 4.894zm17.418-14.853l2.547-20.94h-.057l-5.207 21.46zm36.124-15.222c-1.183.445-2.584.975-4.212 1.61l-4.156 1.6c0-1.733-.483-2.604-1.448-2.604-1.364 0-2.736.776-4.1 2.329-.965 1.145-1.372 2.253-1.22 3.322.113.71.814 1.06 2.101 1.06.71 0 1.628-.113 2.774-.33 1.59-.342 3-.503 4.222-.503 3.105 0 4.913 1.07 5.434 3.22a9.57 9.57 0 01.217 2.11c0 2.367-.88 4.923-2.66 7.668-2.29 3.588-5.51 6.607-9.646 9.05-2.187 1.297-4.326 1.94-6.437 1.94-1.922 0-3.806-.539-5.661-1.609.927-2.224 2.404-5.51 4.44-9.845 1.183.824 2.442 1.23 3.767 1.23.596 0 1.203-.094 1.837-.274a15.204 15.204 0 003.266-1.278c1.486-.814 2.224-1.647 2.224-2.499 0-.928-.757-1.391-2.272-1.391-1.041 0-2.546.208-4.525.634-1.978.426-3.483.643-4.515.643-1.373 0-2.423-.265-3.162-.776-1.448-.965-2.035-2.461-1.78-4.496.483-4.1 3.124-8.842 7.933-14.238 4.913-5.538 9.154-8.444 12.704-8.7 3.436-.217 5.16 2.367 5.16 7.754 0 1.287-.095 2.745-.285 4.373zm-6.228 30.075c5.433-13.869 9.835-27.244 13.205-40.11l16.86-2.83c-1.922 11.2-2.793 24.461-2.613 39.769l-11.757 2.717.833-6.94-3.72.72-1.165 4.894zm17.418-14.853l2.546-20.94h-.056l-5.207 21.46zm17.437-25.058l9.533-1.78c-3.844 14.835-6.352 27.69-7.536 38.567l-8.822 2.442zM54.639 237.37h4.125l-1.518-3.373c-.086-.214-.179-.462-.272-.742-.093-.28-.19-.59-.283-.935-.08.325-.166.625-.259.904-.09.28-.182.538-.276.773zm6.65 5.816l-1.676-3.808h-5.864l-1.718 3.808h-2.525l7.164-15.377 7.158 15.377zm3.929 0v-15.377l9.403 9.04c.255.255.514.528.78.818.261.29.537.617.827.98v-10.259h2.214v15.377l-9.585-9.21a13.423 13.423 0 01-.742-.79 11.205 11.205 0 01-.683-.869v10.29zm16.663 0v-14.798h2.401v14.798zm17.926-7.306c-.028-.114-.072-.431-.13-.949l-.142-1.072a7.638 7.638 0 01-.259 1.01 8.45 8.45 0 01-.42 1.032l-3.871 7.885-3.87-8.047a11.31 11.31 0 01-.728-1.88c-.007.31-.031.634-.076.976-.045.341-.11.697-.196 1.066l-1.587 7.285h-2.215l3.498-15.419 4.367 9.337c.066.145.169.394.307.735.138.345.304.77.5 1.273.141-.424.366-.962.67-1.614.079-.176.14-.31.179-.404l4.266-9.327 3.577 15.419h-2.235zm5.791 7.306v-14.798h8.258v2.05H108v3.704h5.857v2.11H108v4.781h5.857v2.153zm10.165-2.963l1.918-.887c.183.659.517 1.163 1.004 1.508.483.348 1.104.52 1.86.52.717 0 1.282-.2 1.706-.596.421-.397.632-.928.632-1.594 0-.869-.721-1.645-2.166-2.325a9.95 9.95 0 00-.466-.22c-1.632-.797-2.718-1.515-3.26-2.16-.541-.645-.814-1.431-.814-2.36 0-1.206.41-2.182 1.228-2.931.818-.748 1.894-1.12 3.222-1.12 1.09 0 2.004.21 2.739.63a3.323 3.323 0 011.524 1.811l-1.876.973c-.297-.466-.621-.807-.976-1.021a2.292 2.292 0 00-1.221-.324c-.645 0-1.163.169-1.542.507-.383.334-.573.786-.573 1.352 0 .89.838 1.72 2.511 2.487.128.062.228.11.304.141 1.462.676 2.466 1.335 3.011 1.977.545.645.817 1.448.817 2.41 0 1.401-.441 2.515-1.324 3.34-.883.824-2.076 1.238-3.58 1.238-1.26 0-2.29-.29-3.098-.87-.804-.579-1.331-1.407-1.58-2.486zm31.12-4.405c0-.749-.138-1.46-.41-2.132a5.54 5.54 0 00-1.177-1.797 5.202 5.202 0 00-1.731-1.197 5.271 5.271 0 00-2.077-.42 5.254 5.254 0 00-3.832 1.618 5.36 5.36 0 00-1.173 1.786 5.715 5.715 0 00-.403 2.142c0 .748.134 1.455.403 2.121.27.666.662 1.263 1.173 1.787a5.244 5.244 0 003.832 1.618c.721 0 1.404-.138 2.056-.414a5.547 5.547 0 003.339-5.112zm2.504 0a7.604 7.604 0 01-.59 2.98 7.588 7.588 0 01-1.725 2.508 8.013 8.013 0 01-2.576 1.687 7.89 7.89 0 01-3.008.586 8.02 8.02 0 01-3.049-.59 7.89 7.89 0 01-2.56-1.683 7.496 7.496 0 01-1.717-2.498 7.642 7.642 0 01-.586-2.99c0-1.059.196-2.056.586-2.99a7.579 7.579 0 011.718-2.518 7.824 7.824 0 012.566-1.677 8.101 8.101 0 013.042-.576 8.05 8.05 0 013.025.576 7.792 7.792 0 012.56 1.677 7.826 7.826 0 011.724 2.531c.393.942.59 1.932.59 2.977zm2.756 7.368v-15.377l9.403 9.04c.255.256.514.528.78.818.261.29.537.617.827.98v-10.259h2.214v15.377l-9.585-9.21a13.455 13.455 0 01-.742-.79 11.206 11.206 0 01-.683-.868v10.289zm16.622 0v-14.798h2.4v12.645h5.382v2.153zm9.772 0v-14.798h2.4v14.798zm5.86 0v-15.377l9.403 9.04c.255.256.514.528.78.818.262.29.537.617.827.98v-10.259h2.215v15.377l-9.586-9.21a13.455 13.455 0 01-.742-.79 11.23 11.23 0 01-.683-.868v10.289zm16.622 0v-14.798h8.258v2.05h-5.857v3.704h5.857v2.11h-5.857v4.781h5.857v2.153z" fill="#fff"/></g></svg>