<svg xmlns="http://www.w3.org/2000/svg" width="345.6" height="345.6" viewBox="0 0 259.2 259.2"><g data-name="Camada 1"><path d="M50.267 18.12l6 22.32-5.76 15.36 2.16 5.76-6.002 41.64 7.68-1.08-7.08 20.28 165.12.72.478-21.479-8.76.12 9.72-47.16-10.32 1.56 5.64-48-20.756 3.504-.047-1.683-22.28 2.431-3.592-4.066-24.477 2.659-30.254 2.273-4.074-4.278L84 12.2l-16.8-.43z" fill="#e7a39f" fill-rule="evenodd"/><path d="M74.036 14.639l9.52 1.656c-8.51 14.95-15.254 28.469-20.23 40.573l-9.107-.596 6.27-13.184-4.968-23.785 11.54-5.32c-.122 1.817-.203 4.088-.243 6.804-.04 2.726.1 5.452.414 8.167zm-4.129 43.44c5.795-14.79 10.49-29.054 14.083-42.774l17.98-3.018c-2.05 11.943-2.978 26.086-2.786 42.41l-12.538 2.898.888-7.4-3.968.767-1.241 5.22zm18.576-15.84l2.715-22.33h-.06l-5.553 22.886zm7.38 15.416c5.32-13.487 9.388-27.217 12.184-41.179l14.134-2.312-2.03 21.706 5.543-20.05 13.588-2.382c-1.605 12.861-2.412 24.46-2.412 34.798v6.098l-12.054 2.13 2.1-25.905-7.743 28.681-6.512.899 3.907-36.445-8.4 32.306zm55.776-33.324a58.404 58.404 0 00-.818 3.381l-.656 3.261 9.47-2.019-.535 8.178c-4.473.787-7.986 1.473-10.54 2.069a47.831 47.831 0 00-.404 2.362l-.444 2.292 10.974-1.585-.768 11.004c-5.683.474-12.881 1.827-21.594 4.078l7.037-42.41 19.706-2.898-.777 11.004c-3.867.354-7.41.778-10.65 1.283zm35.829-11.257l-.354 10.994c-2.756.162-5.38.353-7.864.596-2.605 10.913-4.361 20.947-5.27 30.084l-9.994 2.604 5.441-31.467c-1.06.152-2.13.333-3.19.525l-3.14.596-.706-11.044zm7.591 11.257a58.569 58.569 0 00-.817 3.381l-.657 3.261 9.47-2.019-.535 8.178c-4.472.787-7.986 1.473-10.54 2.069a47.95 47.95 0 00-.404 2.362l-.444 2.292 10.974-1.585-.767 11.004c-5.684.474-12.882 1.827-21.594 4.078l7.036-42.41 19.706-2.898-.777 11.004c-3.867.354-7.41.778-10.65 1.283" fill="#fff9ae"/><path d="M57.234 61.836l9.542-1.789c-.89 3.257-1.514 5.84-1.893 7.725a226.52 226.52 0 008.823-8.123l6.957 4.554-10.895 9.731 6.106 22.587-9.987 5.33-3.882-20.911a257.655 257.655 0 00-2.764 17.673l-8.775 2.443zm24.859-.01l9.486-1.779c-2.556 9.694-4.44 18.394-5.661 26.09l5.273-2.225 3.88-22.085 9.486-1.78c-3.853 15.165-6.343 28.02-7.488 38.566l-8.88 2.443 1.108-6.163c-3.105 1.373-7.8 3.427-14.086 6.163zm23.221-.065c4.26-1.41 7.858-2.112 10.82-2.112 3.323 0 5.86.871 7.602 2.613 2.405 2.471 3.597 5.49 3.597 9.04 0 1.297-.16 2.67-.492 4.11-1.448 6.512-4.847 12.201-10.205 17.067-5.367 4.866-11.34 7.725-17.92 8.577.076-.814.464-3.238 1.164-7.27l4.44-25.531c.625-3.815.957-5.974.995-6.494zm7.933 9.173c-1.704 7.25-2.991 14.105-3.881 20.58 2.215-2.111 4.194-4.544 5.936-7.318 2.148-3.408 3.218-6.323 3.218-8.766 0-3.143-1.76-4.638-5.273-4.496zm5.292 30.803c5.434-13.868 9.836-27.244 13.206-40.109l16.86-2.83c-1.922 11.198-2.793 24.46-2.613 39.768l-11.758 2.717.833-6.939-3.72.72-1.164 4.893zm17.418-14.853l2.547-20.94h-.057l-5.207 21.461zm36.124-15.222c-1.183.445-2.584.975-4.212 1.61l-4.156 1.6c0-1.733-.483-2.604-1.448-2.604-1.364 0-2.736.777-4.1 2.33-.965 1.145-1.372 2.252-1.22 3.322.113.71.814 1.06 2.101 1.06.71 0 1.628-.114 2.774-.331 1.59-.341 3-.502 4.222-.502 3.105 0 4.913 1.07 5.433 3.219a9.57 9.57 0 01.218 2.11c0 2.367-.88 4.923-2.66 7.668-2.29 3.588-5.51 6.608-9.646 9.05-2.187 1.297-4.327 1.94-6.438 1.94-1.921 0-3.805-.539-5.66-1.608.927-2.225 2.404-5.51 4.44-9.845 1.183.823 2.442 1.23 3.767 1.23.596 0 1.202-.095 1.837-.274a15.205 15.205 0 003.266-1.278c1.486-.814 2.224-1.647 2.224-2.5 0-.927-.757-1.391-2.272-1.391-1.041 0-2.546.208-4.525.634-1.978.426-3.484.644-4.515.644-1.373 0-2.424-.265-3.162-.776-1.449-.966-2.035-2.462-1.78-4.497.483-4.099 3.124-8.841 7.933-14.237 4.913-5.538 9.154-8.445 12.704-8.7 3.436-.218 5.16 2.367 5.16 7.753 0 1.287-.096 2.745-.285 4.373zm-6.229 30.075c5.434-13.868 9.836-27.244 13.206-40.109l16.86-2.83c-1.922 11.198-2.793 24.46-2.613 39.768l-11.757 2.717.833-6.939-3.72.72-1.165 4.893zm17.419-14.853l2.546-20.94h-.057l-5.206 21.461zm17.437-25.057l9.533-1.78c-3.844 14.834-6.352 27.69-7.536 38.566l-8.822 2.443zM55.599 113.084h4.125l-1.518-3.373c-.086-.214-.18-.462-.272-.742a17 17 0 01-.283-.934c-.08.324-.166.624-.259.904-.09.279-.183.538-.276.772zm6.65 5.816l-1.677-3.808H54.71L52.99 118.9h-2.525l7.164-15.377 7.157 15.377zm3.929 0v-15.377l9.402 9.04c.256.256.514.529.78.818.262.29.538.618.828.98v-10.258h2.214v15.377l-9.585-9.21a13.457 13.457 0 01-.742-.79 11.205 11.205 0 01-.683-.87v10.29zm16.663 0v-14.797h2.4V118.9zm17.926-7.306c-.028-.113-.072-.43-.131-.948-.055-.431-.104-.79-.142-1.073a7.638 7.638 0 01-.258 1.01c-.11.339-.252.68-.421 1.032l-3.87 7.885-3.87-8.047a11.31 11.31 0 01-.728-1.88c-.007.31-.031.635-.076.976-.045.342-.11.697-.196 1.066l-1.587 7.285h-2.215l3.498-15.418 4.367 9.337c.065.145.169.393.307.735.138.345.303.769.5 1.272.141-.424.366-.962.67-1.614.078-.176.14-.31.178-.403l4.267-9.327 3.577 15.418h-2.235zm5.791 7.306v-14.797h8.258v2.049h-5.857v3.704h5.857v2.111h-5.857v4.78h5.857v2.153zm10.165-2.963l1.918-.886c.183.658.517 1.162 1.004 1.507.483.348 1.104.52 1.859.52.717 0 1.283-.2 1.707-.596.421-.397.632-.928.632-1.594 0-.869-.721-1.645-2.167-2.324a9.847 9.847 0 00-.465-.221c-1.632-.797-2.718-1.514-3.26-2.16-.541-.644-.814-1.43-.814-2.359 0-1.207.41-2.183 1.228-2.932.817-.748 1.894-1.12 3.222-1.12 1.09 0 2.004.21 2.738.63a3.323 3.323 0 011.525 1.812l-1.876.972c-.297-.465-.621-.807-.977-1.02a2.292 2.292 0 00-1.22-.325c-.645 0-1.163.17-1.542.507-.383.335-.573.787-.573 1.352 0 .89.838 1.721 2.51 2.487.129.062.229.11.305.142 1.462.676 2.466 1.335 3.01 1.976.546.645.818 1.449.818 2.411 0 1.4-.441 2.515-1.324 3.34-.883.823-2.077 1.237-3.58 1.237-1.26 0-2.29-.29-3.098-.869-.804-.58-1.331-1.407-1.58-2.487zm31.12-4.405c0-.748-.138-1.459-.41-2.131a5.54 5.54 0 00-1.177-1.797 5.204 5.204 0 00-1.732-1.197 5.273 5.273 0 00-2.076-.421c-.728 0-1.421.138-2.08.414a5.254 5.254 0 00-1.752 1.204 5.361 5.361 0 00-1.173 1.786 5.715 5.715 0 00-.404 2.142 5.504 5.504 0 001.576 3.908 5.244 5.244 0 003.833 1.618c.72 0 1.404-.138 2.056-.414a5.547 5.547 0 003.339-5.112zm2.504 0a7.604 7.604 0 01-.59 2.98 7.588 7.588 0 01-1.725 2.508 8.012 8.012 0 01-2.576 1.687 7.89 7.89 0 01-3.008.586 8.02 8.02 0 01-3.05-.59 7.89 7.89 0 01-2.559-1.683 7.496 7.496 0 01-1.717-2.497 7.642 7.642 0 01-.587-2.99c0-1.06.197-2.056.587-2.991a7.579 7.579 0 011.717-2.518 7.824 7.824 0 012.567-1.676 8.101 8.101 0 013.042-.576 8.05 8.05 0 013.025.576 7.792 7.792 0 012.56 1.676 7.826 7.826 0 011.724 2.532c.393.941.59 1.931.59 2.976zm2.756 7.368v-15.377l9.402 9.04c.256.256.514.529.78.818.262.29.538.618.828.98v-10.258h2.214v15.377l-9.585-9.21a13.455 13.455 0 01-.742-.79 11.23 11.23 0 01-.683-.87v10.29zm16.622 0v-14.797h2.4v12.645h5.381v2.152zm9.772 0v-14.797h2.4V118.9zm5.86 0v-15.377l9.403 9.04c.255.256.514.529.78.818.261.29.537.618.827.98v-10.258h2.214v15.377l-9.585-9.21a13.455 13.455 0 01-.742-.79 11.23 11.23 0 01-.683-.87v10.29zm16.622 0v-14.797h8.258v2.049h-5.857v3.704h5.857v2.111h-5.857v4.78h5.857v2.153z" fill="#fff9ae"/><path d="M50.267 142.92l6 22.32-5.76 15.36 2.16 5.76L46.664 228l7.68-1.08-7.08 20.28 165.12.72.478-21.479-8.76.12 9.72-47.16-10.32 1.56 5.64-48-20.756 3.504-.047-1.683-22.28 2.431-3.592-4.066-24.477 2.659-30.254 2.274-4.074-4.279-19.664 3.2-16.8-.431z" fill="#231f20" fill-rule="evenodd"/><path d="M74.036 139.44l9.52 1.655c-8.51 14.95-15.254 28.469-20.23 40.573l-9.107-.596 6.27-13.184-4.968-23.785 11.54-5.32c-.122 1.817-.203 4.089-.243 6.804-.04 2.726.1 5.452.414 8.167zm-4.129 43.44c5.795-14.79 10.49-29.055 14.083-42.774l17.98-3.02c-2.05 11.944-2.978 26.087-2.786 42.411l-12.538 2.898.888-7.4-3.968.767-1.241 5.22zm18.576-15.84l2.715-22.331h-.06l-5.553 22.886zm7.38 15.415c5.32-13.487 9.388-27.217 12.184-41.179l14.134-2.312-2.03 21.706 5.543-20.05 13.588-2.382c-1.605 12.861-2.412 24.46-2.412 34.798v6.098l-12.054 2.13 2.1-25.904-7.743 28.68-6.512.899 3.907-36.444-8.4 32.305zm55.776-33.324a58.404 58.404 0 00-.818 3.381l-.656 3.261 9.47-2.019-.535 8.178c-4.473.787-7.986 1.473-10.54 2.069a47.831 47.831 0 00-.404 2.362l-.444 2.292 10.974-1.585-.768 11.004c-5.683.474-12.881 1.827-21.594 4.079l7.037-42.41 19.706-2.899-.777 11.005c-3.867.353-7.41.777-10.65 1.282zm35.829-11.257l-.354 10.994c-2.756.162-5.38.353-7.864.596-2.605 10.913-4.361 20.947-5.27 30.084l-9.994 2.605 5.441-31.468c-1.06.152-2.13.334-3.19.525l-3.14.596-.706-11.044zm7.591 11.257a58.569 58.569 0 00-.817 3.381l-.657 3.261 9.47-2.019-.535 8.178c-4.472.787-7.986 1.473-10.54 2.069a47.95 47.95 0 00-.404 2.362l-.444 2.292 10.974-1.585-.767 11.004c-5.684.474-12.882 1.827-21.594 4.079l7.036-42.41 19.706-2.899-.777 11.005c-3.867.353-7.41.777-10.65 1.282" fill="#fff"/><path d="M57.234 186.636l9.542-1.789c-.89 3.257-1.514 5.841-1.893 7.725a226.52 226.52 0 008.823-8.123l6.957 4.554-10.895 9.731 6.106 22.587-9.987 5.33-3.882-20.911a257.662 257.662 0 00-2.764 17.673l-8.775 2.443zm24.859-.01l9.486-1.779c-2.556 9.694-4.44 18.394-5.661 26.09l5.273-2.225 3.88-22.085 9.486-1.78c-3.853 15.166-6.343 28.021-7.488 38.566l-8.88 2.443 1.108-6.163c-3.105 1.373-7.8 3.427-14.086 6.163zm23.221-.065c4.26-1.41 7.858-2.112 10.82-2.112 3.323 0 5.86.872 7.602 2.613 2.405 2.471 3.597 5.49 3.597 9.04 0 1.298-.16 2.67-.492 4.11-1.448 6.512-4.847 12.202-10.205 17.067-5.367 4.866-11.34 7.725-17.92 8.577.076-.814.464-3.238 1.164-7.27l4.44-25.531c.625-3.815.957-5.974.995-6.494zm7.933 9.173c-1.704 7.251-2.991 14.105-3.881 20.58 2.215-2.111 4.194-4.544 5.936-7.318 2.148-3.408 3.218-6.323 3.218-8.766 0-3.143-1.76-4.638-5.273-4.496zm5.292 30.803c5.434-13.868 9.836-27.244 13.206-40.109l16.86-2.83c-1.922 11.199-2.793 24.461-2.613 39.768l-11.758 2.717.833-6.939-3.72.72-1.164 4.894zm17.418-14.853l2.547-20.94h-.057l-5.207 21.461zm36.124-15.222c-1.183.445-2.584.976-4.212 1.61l-4.156 1.6c0-1.733-.483-2.604-1.448-2.604-1.364 0-2.736.777-4.1 2.33-.965 1.145-1.372 2.252-1.22 3.322.113.71.814 1.06 2.101 1.06.71 0 1.628-.114 2.774-.331 1.59-.341 3-.502 4.222-.502 3.105 0 4.913 1.07 5.433 3.219a9.57 9.57 0 01.218 2.11c0 2.367-.88 4.923-2.66 7.668-2.29 3.588-5.51 6.608-9.646 9.05-2.187 1.298-4.327 1.94-6.438 1.94-1.921 0-3.805-.538-5.66-1.608.927-2.225 2.404-5.51 4.44-9.845 1.183.823 2.442 1.23 3.767 1.23.596 0 1.202-.094 1.837-.274a15.21 15.21 0 003.266-1.278c1.486-.814 2.224-1.647 2.224-2.5 0-.927-.757-1.39-2.272-1.39-1.041 0-2.546.208-4.525.633-1.978.426-3.484.644-4.515.644-1.373 0-2.424-.265-3.162-.776-1.449-.966-2.035-2.461-1.78-4.497.483-4.099 3.124-8.841 7.933-14.237 4.913-5.538 9.154-8.444 12.704-8.7 3.436-.217 5.16 2.367 5.16 7.753 0 1.287-.096 2.745-.285 4.374zm-6.229 30.075c5.434-13.868 9.836-27.244 13.206-40.109l16.86-2.83c-1.922 11.199-2.793 24.461-2.613 39.768l-11.757 2.717.833-6.939-3.72.72-1.165 4.894zm17.419-14.853l2.546-20.94h-.057l-5.206 21.461zm17.437-25.057l9.533-1.78c-3.844 14.834-6.352 27.69-7.536 38.566l-8.822 2.443zM55.599 237.885h4.125l-1.518-3.374c-.086-.214-.18-.462-.272-.742a17 17 0 01-.283-.934c-.08.324-.166.624-.259.904-.09.279-.183.538-.276.772zm6.65 5.815l-1.677-3.808H54.71L52.99 243.7h-2.525l7.164-15.377 7.157 15.377zm3.929 0v-15.377l9.402 9.04c.256.256.514.529.78.818.262.29.538.618.828.98v-10.258h2.214v15.377l-9.585-9.21a13.457 13.457 0 01-.742-.79 11.205 11.205 0 01-.683-.869v10.29zm16.663 0v-14.797h2.4V243.7zm17.926-7.306c-.028-.113-.072-.43-.131-.948-.055-.431-.104-.79-.142-1.073a7.638 7.638 0 01-.258 1.01c-.11.339-.252.68-.421 1.032l-3.87 7.885-3.87-8.047a11.31 11.31 0 01-.728-1.88c-.007.31-.031.635-.076.976-.045.342-.11.697-.196 1.066l-1.587 7.285h-2.215l3.498-15.418 4.367 9.337c.065.145.169.393.307.735.138.345.303.77.5 1.272.141-.424.366-.962.67-1.614.078-.176.14-.31.178-.403l4.267-9.327 3.577 15.418h-2.235zm5.791 7.306v-14.797h8.258v2.049h-5.857v3.704h5.857v2.111h-5.857v4.78h5.857v2.153zm10.165-2.963l1.918-.886c.183.658.517 1.162 1.004 1.507.483.349 1.104.52 1.859.52.717 0 1.283-.2 1.707-.596.421-.396.632-.928.632-1.593 0-.87-.721-1.646-2.167-2.325a9.847 9.847 0 00-.465-.22c-1.632-.798-2.718-1.515-3.26-2.16-.541-.645-.814-1.432-.814-2.36 0-1.207.41-2.183 1.228-2.932.817-.748 1.894-1.12 3.222-1.12 1.09 0 2.004.21 2.738.63a3.324 3.324 0 011.525 1.812l-1.876.972c-.297-.465-.621-.807-.977-1.02a2.292 2.292 0 00-1.22-.325c-.645 0-1.163.17-1.542.507-.383.335-.573.787-.573 1.352 0 .89.838 1.721 2.51 2.487.129.062.229.11.305.142 1.462.676 2.466 1.335 3.01 1.976.546.645.818 1.449.818 2.411 0 1.4-.441 2.515-1.324 3.34-.883.823-2.077 1.237-3.58 1.237-1.26 0-2.29-.29-3.098-.869-.804-.58-1.331-1.407-1.58-2.487zm31.12-4.405c0-.748-.138-1.459-.41-2.131a5.54 5.54 0 00-1.177-1.797 5.204 5.204 0 00-1.732-1.197 5.273 5.273 0 00-2.076-.42 5.253 5.253 0 00-3.832 1.618 5.361 5.361 0 00-1.173 1.785 5.714 5.714 0 00-.404 2.142c0 .749.135 1.456.404 2.122.27.665.662 1.262 1.173 1.786a5.242 5.242 0 003.832 1.618c.72 0 1.404-.138 2.056-.414a5.548 5.548 0 003.339-5.112zm2.504 0a7.604 7.604 0 01-.59 2.98 7.588 7.588 0 01-1.725 2.508 8.012 8.012 0 01-2.576 1.687 7.89 7.89 0 01-3.008.586 8.02 8.02 0 01-3.05-.59 7.89 7.89 0 01-2.559-1.683 7.496 7.496 0 01-1.717-2.497 7.643 7.643 0 01-.587-2.99c0-1.06.197-2.056.587-2.991a7.579 7.579 0 011.717-2.518 7.824 7.824 0 012.567-1.676 8.101 8.101 0 013.042-.576 8.05 8.05 0 013.025.576 7.792 7.792 0 012.56 1.676 7.826 7.826 0 011.724 2.532c.393.941.59 1.931.59 2.976zm2.756 7.368v-15.377l9.402 9.04c.256.256.514.529.78.818.262.29.538.618.828.98v-10.258h2.214v15.377l-9.585-9.21a13.455 13.455 0 01-.742-.79 11.23 11.23 0 01-.683-.869v10.29zm16.622 0v-14.797h2.4v12.645h5.381v2.152zm9.772 0v-14.797h2.4V243.7zm5.86 0v-15.377l9.403 9.04c.255.256.514.529.78.818.261.29.537.618.827.98v-10.258h2.214v15.377l-9.585-9.21a13.455 13.455 0 01-.742-.79 11.23 11.23 0 01-.683-.869v10.29zm16.622 0v-14.797h8.258v2.049h-5.857v3.704h5.857v2.111h-5.857v4.78h5.857v2.153z" fill="#fff"/></g></svg>