<svg xmlns="http://www.w3.org/2000/svg" width="345.6" height="345.6" viewBox="0 0 259.2 259.2"><g data-name="Camada 1"><path d="M126.649 42.071c48.34 0 87.529 39.188 87.529 87.529 0 48.34-39.188 87.529-87.53 87.529-48.34 0-87.528-39.188-87.528-87.529 0-48.34 39.188-87.529 87.529-87.529" fill="#ed1c24" fill-rule="evenodd"/><path d="M49.622 82.079l6 22.32-5.76 15.36 2.16 5.76-6.001 41.64 7.68-1.08-7.08 20.28 165.12.72.478-21.478-8.76.12 9.72-47.16-10.32 1.56 5.64-48-20.756 3.503-.047-1.683-22.28 2.431-3.592-4.066-24.478 2.659-30.253 2.274-4.074-4.278-19.665 3.198-16.799-.43z" fill="#fff" fill-rule="evenodd"/><path stroke-width=".567" stroke-miterlimit="22.926" fill="none" stroke="#fff" d="M49.622 82.079l6 22.32-5.76 15.36 2.16 5.76-6.001 41.64 7.68-1.08-7.08 20.28 165.12.72.478-21.478-8.76.12 9.72-47.16-10.32 1.56 5.64-48-20.756 3.503-.047-1.683-22.28 2.431-3.592-4.066-24.478 2.659-30.253 2.274-4.074-4.278-19.665 3.198-16.799-.43z"/><path d="M73.392 78.598l9.52 1.656c-8.51 14.951-15.254 28.469-20.231 40.573l-9.106-.596 6.269-13.184-4.967-23.785 11.539-5.32c-.121 1.817-.202 4.089-.242 6.804-.04 2.726.1 5.452.413 8.167zm-4.13 43.44c5.796-14.79 10.49-29.054 14.084-42.773l17.98-3.019c-2.05 11.943-2.978 26.086-2.787 42.41l-12.538 2.898.888-7.4-3.967.767-1.242 5.22zm18.576-15.84l2.716-22.33h-.06l-5.553 22.886zm7.38 15.416c5.32-13.487 9.389-27.217 12.185-41.178l14.134-2.312-2.03 21.705 5.543-20.05 13.588-2.382c-1.605 12.861-2.413 24.46-2.413 34.799v6.097l-12.054 2.13 2.1-25.904-7.743 28.68-6.511.899 3.906-36.444-8.399 32.305zm55.777-33.324a58.384 58.384 0 00-.818 3.382l-.656 3.26 9.47-2.019-.536 8.178c-4.472.787-7.985 1.474-10.54 2.07a47.99 47.99 0 00-.403 2.361l-.444 2.292 10.973-1.585-.767 11.004c-5.684.474-12.882 1.827-21.594 4.079l7.036-42.41 19.707-2.898-.778 11.004c-3.866.353-7.41.777-10.65 1.282zm35.828-11.257l-.353 10.994c-2.756.162-5.38.354-7.864.596-2.605 10.913-4.362 20.948-5.27 30.084l-9.995 2.605 5.442-31.468c-1.06.152-2.13.334-3.19.525l-3.14.596-.707-11.044zm7.592 11.257a58.549 58.549 0 00-.818 3.382l-.656 3.26 9.47-2.019-.536 8.178c-4.472.787-7.985 1.474-10.539 2.07a47.99 47.99 0 00-.404 2.361l-.444 2.292 10.974-1.585-.768 11.004c-5.683.474-12.881 1.827-21.594 4.079l7.037-42.41 19.706-2.898-.777 11.004c-3.867.353-7.41.777-10.651 1.282" fill="#ed1c24"/><path d="M56.59 125.796l9.542-1.79c-.89 3.257-1.515 5.841-1.893 7.725a226.605 226.605 0 008.823-8.122l6.957 4.553-10.896 9.732 6.106 22.587-9.987 5.33-3.881-20.912a257.653 257.653 0 00-2.764 17.674l-8.776 2.442zm24.859-.01l9.485-1.78c-2.556 9.694-4.44 18.394-5.66 26.09l5.272-2.225 3.881-22.085 9.486-1.78c-3.853 15.166-6.343 28.021-7.488 38.567l-8.88 2.442 1.108-6.163c-3.105 1.373-7.8 3.427-14.086 6.163zm23.221-.066c4.26-1.41 7.857-2.111 10.82-2.111 3.323 0 5.86.87 7.602 2.613 2.404 2.47 3.597 5.49 3.597 9.04 0 1.297-.16 2.67-.492 4.108-1.449 6.513-4.847 12.203-10.205 17.068-5.368 4.866-11.34 7.725-17.92 8.577.076-.814.464-3.237 1.164-7.27l4.44-25.531c.625-3.815.956-5.974.994-6.494zm7.933 9.173c-1.704 7.251-2.991 14.105-3.881 20.58 2.215-2.111 4.193-4.544 5.935-7.318 2.15-3.407 3.219-6.323 3.219-8.766 0-3.143-1.761-4.638-5.273-4.496zm5.292 30.804c5.433-13.869 9.835-27.245 13.205-40.11l16.86-2.83c-1.922 11.199-2.792 24.461-2.613 39.768l-11.757 2.717.833-6.939-3.72.72-1.165 4.894zm17.418-14.853l2.546-20.94h-.056l-5.207 21.46zm36.124-15.222a375.98 375.98 0 00-4.213 1.61l-4.155 1.599c0-1.732-.483-2.603-1.449-2.603-1.363 0-2.736.776-4.099 2.328-.965 1.146-1.372 2.253-1.22 3.323.113.71.813 1.06 2.1 1.06.71 0 1.629-.113 2.774-.331 1.59-.34 3.001-.502 4.222-.502 3.105 0 4.913 1.07 5.434 3.219a9.57 9.57 0 01.218 2.11c0 2.368-.88 4.924-2.66 7.669-2.291 3.587-5.51 6.607-9.647 9.05-2.186 1.297-4.326 1.94-6.437 1.94-1.921 0-3.805-.54-5.66-1.61.927-2.224 2.404-5.509 4.44-9.844 1.183.823 2.441 1.23 3.767 1.23.596 0 1.202-.094 1.836-.274a15.21 15.21 0 003.266-1.278c1.486-.814 2.225-1.647 2.225-2.5 0-.927-.758-1.39-2.272-1.39-1.042 0-2.547.208-4.525.633-1.979.426-3.484.644-4.516.644-1.372 0-2.423-.265-3.161-.776-1.449-.966-2.036-2.461-1.78-4.497.483-4.099 3.124-8.841 7.933-14.237 4.913-5.538 9.154-8.444 12.704-8.7 3.436-.217 5.159 2.367 5.159 7.753 0 1.288-.095 2.745-.284 4.374zm-6.229 30.075c5.434-13.869 9.836-27.245 13.206-40.11l16.86-2.83c-1.922 11.199-2.793 24.461-2.613 39.768l-11.758 2.717.834-6.939-3.721.72-1.164 4.894zm17.418-14.853l2.547-20.94h-.057l-5.207 21.46zm17.438-25.058l9.532-1.78c-3.843 14.834-6.352 27.69-7.535 38.567l-8.823 2.442zM54.954 177.044h4.126l-1.518-3.374c-.086-.213-.18-.462-.273-.741-.093-.28-.19-.59-.283-.935-.079.324-.165.624-.258.904-.09.279-.183.538-.276.773zm6.65 5.815l-1.676-3.808h-5.864l-1.717 3.808h-2.525l7.164-15.376 7.157 15.376zm3.93 0v-15.376l9.402 9.04c.255.255.514.528.78.818.262.29.538.617.827.979v-10.258h2.215v15.377l-9.586-9.21a13.423 13.423 0 01-.741-.79 11.23 11.23 0 01-.683-.869v10.29zm16.663 0v-14.797h2.4v14.797zm17.926-7.305c-.028-.114-.073-.432-.131-.949-.055-.431-.104-.79-.142-1.072a7.637 7.637 0 01-.258 1.01c-.111.338-.252.68-.421 1.031l-3.87 7.885-3.87-8.047a11.31 11.31 0 01-.728-1.88 9 9 0 01-.076.976c-.045.342-.11.697-.197 1.066l-1.587 7.285H86.63l3.498-15.418 4.367 9.337c.065.145.168.393.306.735.139.345.304.77.5 1.273.142-.425.366-.963.67-1.615.08-.175.141-.31.18-.403l4.266-9.327 3.577 15.418h-2.236zm5.791 7.305v-14.797h8.258v2.049h-5.857v3.704h5.857v2.111h-5.857v4.781h5.857v2.152zm10.165-2.963l1.918-.886c.183.659.517 1.162 1.003 1.507.483.349 1.104.521 1.86.521.717 0 1.283-.2 1.707-.597.42-.396.631-.927.631-1.593 0-.87-.72-1.645-2.166-2.325-.203-.1-.359-.176-.466-.22-1.631-.798-2.718-1.515-3.26-2.16-.54-.645-.813-1.431-.813-2.36 0-1.206.41-2.183 1.228-2.931.817-.749 1.893-1.121 3.221-1.121 1.09 0 2.005.21 2.739.63a3.323 3.323 0 011.525 1.812l-1.877.972c-.296-.465-.62-.807-.976-1.02a2.29 2.29 0 00-1.22-.325c-.646 0-1.163.17-1.543.507-.383.335-.572.787-.572 1.352 0 .89.838 1.722 2.51 2.488.128.062.228.11.304.14 1.463.677 2.467 1.336 3.012 1.977.545.645.817 1.449.817 2.411 0 1.4-.442 2.515-1.325 3.34-.883.824-2.076 1.238-3.58 1.238-1.259 0-2.29-.29-3.097-.87-.804-.58-1.332-1.407-1.58-2.487zm31.12-4.404c0-.749-.139-1.46-.411-2.132a5.54 5.54 0 00-1.176-1.797 5.204 5.204 0 00-1.732-1.197 5.273 5.273 0 00-2.076-.42 5.251 5.251 0 00-3.832 1.618 5.36 5.36 0 00-1.173 1.786 5.715 5.715 0 00-.404 2.142 5.503 5.503 0 001.576 3.908 5.244 5.244 0 003.833 1.617c.72 0 1.403-.138 2.055-.413a5.547 5.547 0 003.339-5.112zm2.503 0a7.604 7.604 0 01-.59 2.98 7.59 7.59 0 01-1.724 2.507 8.016 8.016 0 01-2.577 1.687 7.892 7.892 0 01-3.007.587 8.023 8.023 0 01-3.05-.59 7.894 7.894 0 01-2.559-1.684 7.497 7.497 0 01-1.718-2.497 7.642 7.642 0 01-.586-2.99c0-1.06.197-2.056.586-2.991a7.58 7.58 0 011.718-2.518 7.827 7.827 0 012.566-1.676 8.101 8.101 0 013.043-.576 8.05 8.05 0 013.025.576 7.828 7.828 0 014.284 4.208c.393.942.59 1.931.59 2.977zm2.757 7.367v-15.376l9.402 9.04c.255.255.514.528.78.818.262.29.538.617.827.979v-10.258h2.215v15.377l-9.586-9.21a13.455 13.455 0 01-.741-.79 11.206 11.206 0 01-.683-.869v10.29zm16.621 0v-14.797h2.401v12.645h5.381v2.152zm9.772 0v-14.797h2.4v14.797zm5.86 0v-15.376l9.403 9.04c.255.255.514.528.78.818.262.29.538.617.828.979v-10.258h2.214v15.377l-9.586-9.21a13.455 13.455 0 01-.741-.79 11.23 11.23 0 01-.683-.869v10.29zm16.623 0v-14.797h8.257v2.049h-5.857v3.704h5.857v2.111h-5.857v4.781h5.857v2.152z" fill="#ed1c24"/></g></svg>