<svg xmlns="http://www.w3.org/2000/svg" xmlns:xlink="http://www.w3.org/1999/xlink" width="345.6" height="345.6" viewBox="0 0 259.2 259.2"><g data-name="Camada 1"><path d="M128.64 15.939c65.081 0 117.84 52.759 117.84 117.84s-52.759 117.84-117.84 117.84S10.8 198.86 10.8 133.779s52.759-117.84 117.84-117.84" fill="#ed1c24" fill-rule="evenodd"/><path d="M30.691 48.214l17.28 90.24-24.48 55.68 12.96 2.88 31.056 1.197 3.427 8.069-33.163 2.614-8.038 24.103 201.001-.6-1.562-26.023-10.68.12-43.34-1.645 38.449-21.47-1.109-6.165-22.56-82.32 47.76-45.6-36.24-18-28.32 3.12-25.2-1.44-38.4-8.88-29.04-.48z" fill-rule="evenodd"/><path stroke-width=".567" stroke-miterlimit="22.926" fill="none" stroke="#000" d="M30.691 48.214l17.28 90.24-24.48 55.68 12.96 2.88 31.056 1.197 3.427 8.069-33.163 2.614-8.038 24.103 201.001-.6-1.562-26.023-10.68.12-43.34-1.645 38.449-21.47-1.109-6.165-22.56-82.32 47.76-45.6-36.24-18-28.32 3.12-25.2-1.44-38.4-8.88-29.04-.48z"/><symbol id="a"><path d="M.327.697L.484.67A6.195 6.195 0 01.15 0L0 .01l.104.218L.022.62l.19.088A2.7 2.7 0 01.208.596C.207.551.21.506.215.461l.112.236z"/></symbol><use xlink:href="#a" transform="matrix(229.618 0 0 -229.618 33.838 193.403)" fill="#fff"/><symbol id="b"><path d="M.119.705l.168.031A3.03 3.03 0 01.254.6c.057.05.108.097.155.143l.123-.08L.34.492.447.094.272 0 .203.368A4.258 4.258 0 01.155.057L0 .014l.119.691z"/></symbol><use xlink:href="#b" transform="matrix(215.313 0 0 -215.313 110.887 198.24)" fill="#fff"/><symbol id="c"><path d="M.248.281h.199L.374.444.361.48.347.525.335.481.321.444.248.281M.569 0L.488.184H.205L.122 0H0l.346.743L.692 0H.569z"/></symbol><symbol id="d"><path d="M0 .028v.743L.454.334.492.295a.725.725 0 00.04-.048v.496h.107V0L.176.445.14.483.107.525V.028H0z"/></symbol><symbol id="e"><path d="M0 0v.715h.116V0H0z"/></symbol><symbol id="f"><path d="M.652.382a1.369 1.369 0 00-.006.046L.639.48A.4.4 0 00.606.381L.419 0 .232.389A.396.396 0 00.197.48C.197.465.195.449.193.433A.516.516 0 00.184.381L.107.029H0l.169.745L.38.323A3.154 3.154 0 00.419.226c.007.02.018.046.032.078L.46.323l.206.451.173-.745H.731L.652.382z"/></symbol><symbol id="g"><path d="M0 0v.715h.399V.616H.116V.437h.283V.335H.116V.104h.283V0H0z"/></symbol><symbol id="h"><path d="M0 .162l.093.043A.131.131 0 01.141.132a.152.152 0 01.09-.025c.035 0 .062.01.083.029.02.019.03.045.03.077 0 .042-.035.079-.105.112a.51.51 0 00-.18.115.171.171 0 00-.039.114c0 .059.02.106.059.142.04.036.092.054.156.054C.288.75.332.74.367.72A.164.164 0 00.441.632L.35.585a.139.139 0 01-.047.049.107.107 0 01-.059.016A.108.108 0 01.17.626.083.083 0 01.142.56c0-.043.041-.083.121-.12L.278.433A.43.43 0 00.424.338.176.176 0 00.463.221.21.21 0 00.399.06.243.243 0 00.226 0a.251.251 0 00-.15.042.2.2 0 00-.076.12z"/></symbol><symbol id="j"><path d="M.643.375a.274.274 0 01-.16.248.267.267 0 01-.201 0A.257.257 0 01.141.479a.279.279 0 010-.206.257.257 0 01.482 0c.013.032.02.066.02.102m.121 0A.366.366 0 00.528.028a.38.38 0 00-.293.001.38.38 0 00-.207.202.38.38 0 00.083.41.388.388 0 00.418.081.386.386 0 00.207-.203.37.37 0 00.028-.144z"/></symbol><symbol id="k"><path d="M0 0v.715h.116V.104h.26V0H0z"/></symbol><use xlink:href="#c" transform="matrix(24.809 0 0 -24.809 33.838 227.647)" fill="#fff"/><use xlink:href="#d" transform="matrix(24.809 0 0 -24.809 52.668 228.341)" fill="#fff"/><use xlink:href="#e" transform="matrix(24.809 0 0 -24.809 72.64 227.647)" fill="#fff"/><use xlink:href="#f" transform="matrix(24.809 0 0 -24.809 77.949 228.366)" fill="#fff"/><use xlink:href="#g" transform="matrix(24.809 0 0 -24.809 101.07 227.647)" fill="#fff"/><use xlink:href="#h" transform="matrix(24.809 0 0 -24.809 113.252 228.118)" fill="#fff"/><use xlink:href="#i" transform="matrix(24.809 0 0 -24.809 125.855 227.647)" fill="#fff"/><use xlink:href="#j" transform="matrix(24.809 0 0 -24.809 134.613 228.118)" fill="#fff"/><use xlink:href="#d" transform="matrix(24.809 0 0 -24.809 156.866 228.341)" fill="#fff"/><use xlink:href="#k" transform="matrix(24.809 0 0 -24.809 176.788 227.647)" fill="#fff"/><use xlink:href="#e" transform="matrix(24.809 0 0 -24.809 188.498 227.647)" fill="#fff"/><use xlink:href="#d" transform="matrix(24.809 0 0 -24.809 195.519 228.341)" fill="#fff"/><use xlink:href="#g" transform="matrix(24.809 0 0 -24.809 215.44 227.647)" fill="#fff"/></g></svg>